<?xml version="1.0" encoding="utf-8"?>
<!-- Generator: Adobe Illustrator 16.0.0, SVG Export Plug-In . SVG Version: 6.00 Build 0)  -->
<!DOCTYPE svg PUBLIC "-//W3C//DTD SVG 1.1//EN" "http://www.w3.org/Graphics/SVG/1.1/DTD/svg11.dtd">
<svg version="1.1" id="Layer_1" xmlns:sketch="http://www.bohemiancoding.com/sketch/ns"
	 xmlns="http://www.w3.org/2000/svg" xmlns:xlink="http://www.w3.org/1999/xlink" x="0px" y="0px" width="444px" height="415px"
	 viewBox="0 0 444 415" enable-background="new 0 0 444 415" xml:space="preserve">
<title>Page 1 + Matter Logo</title>
<desc>Created with Sketch.</desc>
<g id="Final" sketch:type="MSPage">
	<g id="Homepage-V3-Copy" transform="translate(-996.000000, -5387.000000)" sketch:type="MSArtboardGroup">
		
			<g id="Group-Copy-_x2B_-2015-Matter-Inc-All--_x2B_-Page-1-_x2B_-Matter-Logo" transform="translate(-21.000000, 5225.000000)" sketch:type="MSLayerGroup">
			<g id="Page-1-_x2B_-Matter-Logo" transform="translate(1017.000000, 162.000000)">
				<g id="Page-1">
					<g id="Group-3">
						<g id="Clip-2">
						</g>
						<defs>
							<filter id="Adobe_OpacityMaskFilter" filterUnits="userSpaceOnUse" x="0" y="0.208" width="470.417" height="447.792">
								<feColorMatrix  type="matrix" values="1 0 0 0 0  0 1 0 0 0  0 0 1 0 0  0 0 0 1 0"/>
							</filter>
						</defs>
						<mask maskUnits="userSpaceOnUse" x="0" y="0.208" width="470.417" height="447.792" id="mask-2">
							<g filter="url(#Adobe_OpacityMaskFilter)">
								<path id="path-1" fill="#FFFFFF" d="M0,0.208h470.418V448H0V0.208z"/>
							</g>
						</mask>
						<path id="Fill-1" sketch:type="MSShapeGroup" mask="url(#mask-2)" fill="#7C7C7C" d="M290.522,12.216l-0.257-0.769
							l-0.171-0.514l0.302,0.016l2.821,0.148l-0.138,0.622l-1.946,0.598L290.522,12.216z M284.537,0.208l0.261,0.958l0.198,0.726
							c-1.038-0.536-2.221-1.378-2.233-1.388l-0.378-0.27l-0.363,0.291l-0.933,0.746l-0.604,0.482l0.604,0.479l8.725,6.907v1.197
							v0.583l0.178,0.01l-0.461,0.118l-7.258,1.856v-0.142v-0.205l-0.123-0.164l-1.12-1.493l-0.476-0.634l-0.496,0.62l-2.201,2.751
							c-0.512,0.431-4.566,3.84-5.195,4.453c-0.242,0.152-1.414,0.523-2.804,0.523c-2.366,0-5.208-1.018-5.313-5.865
							c-0.096-4.393,0.87-6.323,1.697-7.168c0.667-0.682,1.393-0.825,1.883-0.825c0.162,0,0.29,0.016,0.369,0.029
							c0.496,0.083,0.588,0.283,0.605,0.345l-0.278,2.27l1.386-1.917c0.305-0.406,0.684-1.37-0.057-2.11
							c-0.361-0.362-0.824-0.749-1.734-0.749c-0.646,0-1.485,0.192-2.64,0.604c-2.894,1.034-3.516,6.266-3.577,6.859l-0.003,0.031
							v0.032v2.897c-0.925-0.267-2.475-0.646-3.806-0.646c-0.779,0-1.385,0.125-1.85,0.384c-0.941,0.523-1.894,0.797-2.496,0.932
							l-0.325-4.543l-0.041-0.571h-0.571h-1.12h-0.667l0.055,0.666l0.509,6.101l-1.246,0.096l-0.843-5.227l-0.046-0.281
							l-0.245-0.147l-0.934-0.561l-1.068-0.642l0.143,1.238l0.689,6.037l-0.5,0.167l-0.463-3.553l-0.047-0.357l-0.334-0.133
							l-0.934-0.373l-1.018-0.406l0.184,1.08c0.678,3.976,1.289,8.455,1.159,9.171c-0.208,0.358-0.734,0.375-0.739,0.375h-0.066
							l-0.064,0.014l-3.682,0.8l-0.064-0.321c-0.178-0.89-0.546-4.75-0.55-4.789l-0.058-0.609l-0.609,0.055l-3.633,0.329
							l-0.772-2.164l-0.17-0.477l-0.501,0.076l-19.595,2.986l-0.556,0.085l0.035,0.561l0.147,2.371
							c-1.188,0.078-3.842,0.289-5.999,0.72c-2.177,0.435-4.961,0.76-6.029,0.877l-0.88-2.012c1.938-0.848,8.424-3.646,11.677-4.576
							c3.8-1.085,8.21-1.282,8.254-1.284l0.459-0.02l0.111-0.445l0.561-2.239l-1.19-0.305c0.012-0.046,0.023-0.067,0.023-0.068
							c-0.002,0.005-0.296,0.506-2.005,0.934c-2.037,0.509-3.789,1.025-4.088,1.114l-5.18,0.74
							c-0.014,0.001-3.337,0.367-5.885,0.367c-2.465,0-5.669,2.585-6.537,3.325l-2.333-0.333l-0.099-0.014l-0.098,0.018
							c-0.041,0.007-4.132,0.752-5.982,1.123c-0.625,0.125-1.249,0.329-1.852,0.525c-0.99,0.323-2.014,0.657-3.082,0.657
							c-0.276,0-0.551-0.022-0.817-0.067c-1.961-0.327-2.654-0.949-2.661-0.956l-0.281-0.259l-0.366,0.128
							c-0.048,0.019-4.89,1.876-9.665,3.344c-4.48,1.379-10.98,2.451-11.777,2.58l-3.276-0.363l-0.134-0.015l-0.128,0.042
							c0,0-0.508,0.155-1.578,0.155c-1.067,0-2.893-0.158-5.524-0.91c-4.999-1.429-8.286-4.663-8.318-4.695l-0.014-0.014
							l-0.016-0.014l-2.986-2.614c-0.031-0.027-3.76-3.382-5.983-5.234c-1.724-1.437-5.431-1.472-8.411-1.5
							c-1.166-0.01-2.173-0.02-2.686-0.123c-2.213-0.442-3.493-1.273-4.028-2.612c-0.772-1.927-2.266-3.809-2.33-3.888l-0.123-0.153
							l-0.188-0.054l-2.613-0.746l-0.783-0.224v0.815v9.549l-1.205,0.753l-0.313,0.196l0.026,0.369
							c0.002,0.026,0.178,2.602-0.184,5.861c-0.34,3.063-1.813,8.44-2.012,9.153l-1.077,1.795l-0.73,1.095l-0.104,0.155v0.186v3.596
							l-1.238,2.653l-0.733,1.283l-0.032,0.055l-0.02,0.062l-1.62,5.04l-0.59,0.442l-0.246,0.184v0.308v0.896
							c-0.3,0.342-0.688,0.694-0.886,0.761c-0.824,0.273-0.971,1.563-0.979,2.365c-0.191,0.701-1.728,6.27-5.007,15.936
							c-3.394,10.003-5.583,12.029-5.604,12.048l-0.021,0.02l-0.027,0.027l-4.904,5.268c-0.772,0.155-3.699,0.72-5.183,0.72
							c-0.158,0-0.292-0.007-0.398-0.02c-0.825-0.104-1.154-0.261-1.252-0.318l-0.323-0.648l-0.602,0.568
							c-0.034,0.032-3.367,3.177-5.38,4.824c-0.941,0.77-1.398,0.986-1.572,1.047l-0.002-0.001l-1.12-0.561l-0.34-0.169
							l-0.304,0.228l-1.493,1.118c-0.629,0.472-0.982,0.677-1.161,0.764l-1.453-1.13l-1.326-0.947l-0.823-0.588l-0.143,1.001
							l-0.136,0.95l-3.024,1.177c-0.72,0.28-1.348,0.422-1.864,0.422c-1,0-1.226-0.54-1.248-0.601l-0.025-0.082l-0.041-0.057
							l-1.306-2.053l-0.158-0.249l-0.292-0.032l-1.625-0.18l-1.75-0.525l-1.998-1.089l-0.282-0.154l-0.287,0.144l-1.093,0.546
							l-2.32,0.893c-0.382,0.034-2.286,0.175-7.136,0.175h-5.709l-0.673-0.168l-0.04-0.01l-0.041-0.004l-1.68-0.188l-0.955-0.106
							l0.304,0.912l0.26,0.78c-0.826,0.918-3.518,3.924-4.64,5.366c-1.185,1.523-3.065,2.219-3.084,2.226l-0.097,0.036l-0.08,0.065
							l-2.986,2.426l-0.072,0.058l-0.052,0.078l-1.019,1.528l-2.118,0.908l-1.208-0.906l-0.983-0.738v1.229v0.934l-0.814,1.221
							l-1.689-0.153l-0.471-0.043l-0.162,0.445l-0.747,2.053l-0.018,0.049l-0.009,0.052l-0.291,1.601l-1.225,0.137l-0.473,0.053
							l-0.067,0.471l-0.374,2.612l-0.292,1.899H3.79H3.535l-0.18,0.18L2.48,113.6l-1.234,0.707l-0.997,0.57l1.027,0.513l1.213,0.605
							l0.112,0.678l-0.43,1.576l-0.397,0.1l-0.165,0.041l-0.121,0.121l-0.933,0.934L0,120l0.675,0.404l1.601,0.96l0.157,1.559
							l0.014,0.137l0.071,0.118c0.011,0.018,1.113,1.866,2.201,4.405c0.916,2.138,1.194,3.127,1.255,3.368l-0.185,7.385
							l0.373,19.248l0.935,15.888l0.002,0.034l0.006,0.034l0.93,5.395l0.371,3.157l0.005,0.042l0.011,0.042l0.917,3.487l0.557,9.271
							l0.005,0.08l0.025,0.077c0.013,0.039,1.291,3.898,1.652,6.969c0.366,3.108,0.739,17.527,0.743,17.672l0.001,0.047l0.008,0.047
							l1.121,6.158l0.013,0.072l0.03,0.068l1.475,3.318l1.091,3.817l0.555,7.402l0.005,0.06l0.015,0.058l2.009,7.306
							c-0.104,0.418-0.351,1.539-0.351,2.795c0,1.525,0.366,3.74,0.381,3.833l1.667,12.224l-0.365,3.283l-0.013,0.121l0.033,0.116
							l0.352,1.229l0.184,8.087c-0.107,0.844-0.425,3.03-0.702,3.723c-0.409,1.024-0.105,4.003-0.04,4.589l0.003,0.027l0.005,0.025
							l0.526,2.629l-0.688,1.891l-0.076,0.211l0.076,0.209l1.448,3.984c-0.038,0.557-0.178,2.717-0.178,4.205
							c0,1.738,1.45,7.379,1.512,7.617l0.006,0.021l0.006,0.02l0.71,2.131l-0.367,8.098l-0.002,0.047l0.005,0.047l0.932,8.77
							l0.004,0.035l0.008,0.033l0.746,3.359l0.011,0.049l0.019,0.047l1.084,2.711l0.366,4.758l0.002,0.029l0.005,0.029l0.747,4.292
							l1.865,8.578l0.556,5.007l0.011,0.096l0.039,0.087l1.446,3.255l0.18,3.248l0.004,0.063l0.017,0.061l2.979,11.174
							c0.076,0.42,1.105,6.174,1.105,8.263c0,2.357,1.316,5.015,1.372,5.127l2.75,6.051l0.548,4.571l0.013,0.107l0.048,0.095
							l1.814,3.63c0.042,0.455,0.203,2.313,0.361,5.643c0.171,3.602,1.973,7.132,2.413,7.943l-0.173,2.242l-0.008,0.112l0.031,0.108
							c0.013,0.043,1.305,4.484,1.852,7.404c0.537,2.861,1.945,9.563,2.05,10.061l0.37,3.33l0.011,0.102l0.042,0.09l1.242,2.662
							l-0.179,3.58l-0.007,0.143l0.056,0.131l0.56,1.305l0.16,0.373h0.405h318.737h0.718l-0.11-0.709l-2.239-14.369l-0.93-5.951
							c-0.091-1.047-0.395-4.393-0.587-4.971c-0.178-0.532-0.766-1.729-0.931-2.062l-1.824-8.939l1.839-8.456l0.014-0.065v-0.065
							c0-0.725-0.016-3.133-0.218-3.74c-0.189-0.566-1.091-2.912-1.129-3.012l-0.066-0.172l-0.15-0.107l-1.307-0.934
							c-0.791-0.529-1.559-1.246-1.626-1.515c-0.126-0.501-0.254-1.286-0.319-1.704c0.551-0.596,2.132-2.301,3.329-3.498
							c1.191-1.191,4.084-2.931,5-3.469l1.196,0.598l0.396,0.199l0.313-0.313l0.746-0.747c0.139-0.138,0.365-0.208,0.676-0.208
							c0.345,0,0.678,0.088,0.829,0.135l3.832,3.103l0.444,0.359l0.392-0.417l2.728-2.909c1.587-0.832,3.51-1.723,3.92-1.748
							c0.184,0.033,0.767,0.516,1.192,0.869c0.688,0.57,1.547,1.279,2.472,1.689c1.671,0.743,5.876,0.797,6.69,0.799l1.78,0.535
							l0.072,0.021l0.075,0.004l3.762,0.18l3.226,1.971l0.119,0.073l0.14,0.013c0.021,0.003,0.512,0.051,1.787,0.051
							c1.158,0,3.229-0.041,6.521-0.234c6.226-0.367,6.358-0.717,6.513-1.121l0.141-0.371l-0.167-0.178
							c-0.159-0.508-0.749-1.98-2.474-3.017c-1.231-0.739-2.196-0.894-2.789-0.894c-0.413,0-0.662,0.076-0.708,0.091l-0.18,0.06
							l-0.114,0.15l-2.258,2.953l-1.999,0.143c-0.244-0.347-0.682-1.02-1.035-1.845c-0.61-1.425-1.585-2.399-3.513-4.134
							c-1.314-1.183-1.721-1.947-1.83-2.202c0.073-0.349,0.327-1.337,1.007-2.429c0.205-0.327,0.45-0.753,0.733-1.246
							c1.018-1.77,2.556-4.445,4.405-6.295c2.465-2.465,5.041-7.406,5.15-7.616l0.068-0.133v-0.149v-1.12v-0.317l-0.259-0.184
							l-8.397-5.971l-0.106-0.076l-0.128-0.025l-0.934-0.188l-0.626-0.105v-1.159v-0.329l-0.273-0.182
							c-0.011-0.008-1.076-0.719-1.585-1.229c-0.289-0.289-0.718-0.43-1.313-0.43c-0.44,0-0.908,0.08-1.246,0.154l-1.262-2.209
							l-0.075-0.131l-0.129-0.082l-4.028-2.563l-0.807-0.941l2.082-4.685l0.171-0.385l-0.299-0.299l-1.866-1.866l-0.043-0.043
							l-0.051-0.034l-7.277-4.852c-0.585-0.391-2.192-1.58-2.591-2.377c-0.062-0.123-0.063-0.188-0.06-0.197
							c0.021-0.055,0.194-0.145,0.38-0.194c0.552,0.228,2.27,0.931,3.229,1.25c0.715,0.239,2.178,1.524,2.932,2.278l0.181,0.18
							h0.254h0.772l0.381,0.634l0.761,1.146l0.059,0.088l0.085,0.063l2.986,2.238l0.125,0.096l0.156,0.021
							c0.009,0.002,1.225,0.195,2.943,1.225c0.987,0.594,1.845,0.895,2.546,0.895c0.368,0,0.582-0.088,0.657-0.125l0.17-0.084
							l0.093-0.166l0.91-1.638l2.583-3.323l0.104-0.133l0.021-0.168l0.152-1.219c0.414-0.277,1.355-0.883,2.279-1.279
							c0.838-0.359,2.806-0.574,3.938-0.662l0.259,1.165l0.007,0.03l0.011,0.03l0.372,1.12l0.036,0.107l0.071,0.086l1.554,1.9
							l0.362,5.959l0.005,0.093l0.032,0.086l1.119,2.987l0.085,0.226l0.217,0.107c0.784,0.394,2.938,1.617,3.474,2.555
							c0.533,0.934,0.528,2.48,0.481,2.997l-0.063,0.701l0.702-0.031l8.441-0.366l2.76,1.208l2.723,2.54l0.16,0.15l0.22,0.014
							l2.906,0.183l2.596,0.863l2.597,2.426c0.153,0.398,0.619,1.584,1.095,2.533c0.407,0.818,1.268,1.286,2.359,1.286
							c0.196,0,0.319-0.017,0.319-0.017l0.311-0.042l0.153-0.276l1.037-1.924l1.158,0.515l0.518,0.229l0.271-0.496l4.292-7.838
							l0.259-0.473l-0.435-0.318l-2.279-1.671l2.397-2.962l7.364,5.437l0.486,0.358l0.367-0.479l2.426-3.173l0.385-0.502
							l-0.514-0.37l-13.491-9.714l1.881-2.553l7.718,5.611l0.489,0.355l0.363-0.484l0.56-0.745l0.354-0.472l-0.457-0.373
							l-7.747-6.338l0.938-1.207l0.363-0.467l-0.452-0.381l-4.666-3.918l-0.016-0.014l-0.016-0.012
							c-1.037-0.761-2.814-2.234-3.173-2.953c-0.034-0.068-0.041-0.107-0.04-0.117c0.044-0.076,0.321-0.2,0.637-0.267
							c0.892,0.663,4.502,3.362,7.233,5.612c2.218,1.826,3.605,2.753,4.123,2.753h0.098l0.094-0.03l9.143-2.986l0.771-0.252
							l-0.449-0.674l-0.746-1.118l-0.246-0.37l-0.428,0.118l-8.988,2.468l-1.062-2.652l0.319-0.128
							c0.347-0.081,2.57-0.601,4.456-1.114c2.059-0.563,5.867-2.011,6.028-2.072l0.298-0.113l0.079-0.309l2.427-9.518l0.242-0.951
							l-0.962,0.197l-4.906,1.01l2.589-0.751l0.204-0.06l0.124-0.173l0.934-1.306l0.966-1.35l-1.612,0.395l-10.638,2.613
							l-0.017,0.004l-0.017,0.005l-2.027,0.624l-0.097-0.121c0.302-0.234,0.687-0.524,0.965-0.711
							c0.464-0.237,4.962-1.387,8.947-2.338l1.286-0.309l-1.065-0.785l-3.545-2.613l-0.257-0.188l-0.303,0.101l-1.679,0.561
							l-0.351,0.117l-0.062,0.365c-0.029,0.162-0.117,0.37-0.183,0.436c-0.571-0.141-2.206-0.455-3.123-0.631l0.029-0.115
							l0.104-0.421l-0.36-0.239l-9.518-6.344l-0.368-0.246l-0.35,0.271l-1.35,1.049c-0.483-0.305-0.917-0.647-1.02-0.818
							c-0.031-0.406-0.344-0.796-1-0.796c-0.538,0-1.243,0.259-1.322,0.288c-0.028,0.012-0.508,0.211-1.083,0.211
							c-0.321,0-0.607-0.063-0.852-0.186l-1.119-0.561l-0.309-0.154l-0.293,0.184l-1.343,0.84h-1.598
							c-0.373-0.418-1.241-1.361-2.124-2.096c-1.095-0.912-6.453-5.9-6.507-5.951l-0.435-0.403l-0.419,0.419l-5.971,5.972
							l-2.741-2.019c0.246-0.641,0.696-1.846,0.967-2.789c0.227-0.794,0.073-1.425-0.186-1.873c0.41-0.322,0.77-0.807,0.77-1.469
							c0-1.213-1.404-2.252-1.563-2.367l-0.346-0.246l-0.354,0.236l-0.965,0.644h-0.237c0.091-0.635,0.241-1.474,0.435-1.958
							c0.233-0.582,1.399-1.771,2.08-2.383l0.213-0.191l-0.01-0.287l-0.169-5.047l0.571-0.08l0.858,0.428l2.355,2.355
							c1.024,1.025,5.432,1.254,6.758,1.3l0.11,0.003l0.105-0.033c0.097-0.033,2.389-0.805,3.413-1.828
							c0.732-0.732,1.76-1.084,1.945-1.143l4.439-0.739l0.22-0.036l0.146-0.17l1.119-1.307l1.01-1.178l-1.543,0.167l-6.881,0.744
							c-0.111,0.004-0.65,0.021-1.399,0.021c-1.58,0-4.463-0.072-6.028-0.555c-2.103-0.647-2.604-1.526-3.296-2.744l-0.083-0.145
							c-0.336-0.588-0.017-0.963,0.227-1.145l16.815-0.924l0.151-0.009l0.131-0.079c0.126-0.075,1.231-0.77,1.231-1.832
							c0-0.859-1.363-2.36-2.201-3.201c-0.457-0.618-6.474-8.762-9.86-13.396c-2.326-3.183-3.286-3.592-3.862-3.592
							c-0.434,0-0.737,0.252-0.885,0.566l-2.378,1.487l-2.247-2.247l0.156-1.577c0.208-2.075-0.801-2.712-1.075-2.847
							c-0.281-0.158-2.526-1.375-5.658-1.561c-0.289-0.018-0.576-0.025-0.853-0.025c-2.264,0-3.467,0.559-3.872,0.792l-2.519,0.315
							l-0.719-0.862l-0.198-0.237l-0.31,0.018l-6.446,0.369l-1.595-0.355l-1.479-0.369l-0.109-0.027l-0.112,0.014l-10.316,1.244
							l-0.637-2.035l3.235-1.941c0.243-0.054,0.969-0.201,1.679-0.201c0.224,0,0.426,0.016,0.6,0.044
							c1.045,0.175,1.581,0.351,1.586,0.352l0.113,0.038l0.121-0.008l25.565-1.682l0.575-0.037v-0.575v-0.933v-0.032l-0.004-0.032
							l-1.306-12.316l-0.061-0.569l-0.57,0.019l-10.863,0.356l-0.458-2.288l-0.091-0.457l-0.465-0.035l-2.426-0.187l-0.023-0.002
							h-0.023c-0.003,0-0.809-0.022-1.935-0.665c-0.968-0.554-2.11-1.001-2.701-1.217l-0.163-2.766l-0.011-0.184l-0.111-0.148
							l-0.56-0.746l-0.068-0.092l-0.098-0.061l-1.492-0.934l-0.178-0.111l-0.209,0.021l-1.021,0.102l0.08-0.359l8.268,0.177
							l0.414,0.009l0.163-0.381l0.561-1.307l0.101-0.234l-0.095-0.236l-0.374-0.933l-0.071-0.177l-0.158-0.105l-0.849-0.566
							c-0.009-0.613-0.049-1.789-0.215-2.29c-0.156-0.469-0.322-2.191,0-3.156c0.399-1.202,0.404-2.205,0.404-2.247v-0.02
							l-0.001-0.019l-0.374-5.973l-0.028-0.449l-0.436-0.109l-1.067-0.267l-0.335-3.854l-0.019-0.207l-0.139-0.154l-3.733-4.105
							l-0.153-0.168l-0.225-0.028l-1.439-0.18l-2.25-0.692c-0.534-0.476-1.122-1.143-1.203-1.466
							c-0.194-0.778-0.569-1.718-0.585-1.758l-0.126-0.315l-0.335-0.062l-2.053-0.374l-0.054-0.01h-0.057h-1.338l-0.919-0.49
							l0.156-0.234l0.746-1.119l0.021-0.032l0.018-0.034l0.56-1.12l0.076-0.154l-0.014-0.171l-0.36-4.329l1.435-3.407l1.854-3.893
							l0.025-0.053l0.015-0.058l1.307-5.038l0.044-0.169l-0.052-0.167l-1.401-4.515l0.601,0.067l4.729,3.091l0.51,0.334l0.338-0.507
							l0.746-1.12l0.368-0.552l-0.578-0.325l-7.539-4.229c-0.344-0.462-1.791-2.464-2.25-3.996c-0.465-1.55-0.525-3.268-0.533-3.66
							l0.229-0.8l5.697-0.336l7.849,5.477l0.121,0.084l0.145,0.021l1.307,0.186l0.813,0.116l-0.119-0.813l-1.493-10.264
							l-0.082-0.568l-0.573,0.044l-14.273,1.098l-0.419-0.418l-0.381-1.782l6.615-0.847l0.646-0.083L388.26,136l-0.56-2.985
							l-0.103-0.546l-0.554,0.047l-6.071,0.52l-0.768-1.995l-0.161-0.417l-0.447,0.025l-6.401,0.356l-0.778-0.973l0.164-0.065
							l0.033-0.013l0.031-0.017l6.905-3.732l0.308-0.167l0.014-0.35l0.187-4.853l0.002-0.044l-0.005-0.043l-0.679-6.45l5.888-0.337
							l0.933-0.053l-0.418-0.835l-0.747-1.494l-0.169-0.34h-0.38h-4.856l-0.069-0.694l7.779-0.691l0.645-0.057l-0.091-0.642
							l-0.186-1.306l-0.079-0.552l-0.557,0.024l-7.756,0.344v-0.867l3.939-0.492l0.688-0.086l-0.168-0.672l-0.372-1.494
							l-0.141-0.563l-0.571,0.109l-3.102,0.591l0.601-5.401l8.094-0.88l0.584-0.063l-0.036-0.586l-0.373-5.971l-0.04-0.634
							l-0.632,0.06l-7.312,0.697l-0.276-1.106l5.718-1.176l0.347-0.072l0.112-0.336l0.372-1.12l0.29-0.871l-0.915,0.063
							l-4.982,0.344l-0.299-0.673l5.338-1.834l0.532-0.183l-0.137-0.547l-0.373-1.492l-0.163-0.651l-0.634,0.219l-4.544,1.572
							l-1.231-0.923l-0.033-0.025l-0.037-0.02l-1.581-0.878l-1.857-2.194l-0.168-1.677l-0.02-0.195l-0.13-0.148
							c-0.013-0.015-1.331-1.52-3.179-3.553c-1.582-1.74-4.709-5.855-5.541-6.958l0.245-0.612l0.21-0.525l-0.507-0.252l-0.123-0.062
							l0.36-0.541l0.167-0.25l-0.096-0.285l-0.373-1.12l-0.194-0.583l-0.583,0.195l-0.438,0.146l-0.01-0.06l2.898-2.387l0.395-0.325
							l-0.248-0.448l-0.933-1.68l-0.286-0.514l-0.526,0.263l-4.021,2.009l-1.932-2.575l-0.266-0.354l-0.42,0.14l-0.665,0.221
							l-0.773-1.216l4.85-4.503l0.649-0.604l-0.792-0.396l-1.12-0.56l-0.329-0.164l-0.3,0.211l-4.615,3.247l-0.075-0.076
							l4.489-3.491l0.466-0.362l-0.344-0.48l-0.933-1.306l-0.341-0.477l-0.492,0.317l-5.282,3.407l-2.44-3.581l-1.79-3.415
							l5.539-3.98l0.635-0.457l-0.594-0.509l-1.307-1.119l-0.372-0.319l-0.394,0.292l-5.336,3.959l-0.83-0.922l6.127-4.084
							l0.605-0.404l-0.5-0.53l-3.173-3.359l-0.363-0.385l-0.436,0.304l-5.146,3.602l-0.529-0.604l5.115-4.262l0.374-0.312
							l-0.218-0.436l-0.56-1.12l-0.322-0.643l-0.585,0.418l-4.617,3.299l-0.41-0.902l4.237-2.882l0.399-0.271l-0.17-0.452
							l-0.56-1.492l-0.289-0.772l-0.657,0.498l-5.59,4.235l-0.685-1.256l1.471-12.495l0.035-0.295l-0.211-0.211l-1.307-1.307
							l-0.455-0.455l-0.434,0.477l-5.165,5.682l-1.256-1.256l2.922-4.813l0.377-0.62l-0.674-0.269l-0.934-0.374l-0.486-0.194
							l-0.27,0.449l-2.988,4.984l-1.373-1.144l1.93-6.139l0.171-0.544l-0.529-0.211l-0.933-0.373l-0.578-0.231l-0.224,0.581
							l-2.604,6.771l-1.284-0.321L324.26,5.806l-0.053-0.639l-0.636,0.079l-1.494,0.187l-0.574,0.072l0.037,0.577l0.49,7.666
							l-1.451-0.781l-0.179-0.096l-0.199,0.029l-1.087,0.155l-2.878-1.758v-0.402v-0.223l-0.142-0.171l-0.933-1.12l-0.139-0.167
							l-0.213-0.042l-0.685-0.136l-0.566-0.852l-0.842-2.186c0.098-0.472,0.274-1.682-0.039-3.249
							c-0.045-0.225-0.081-0.422-0.113-0.595c-0.172-0.926-0.308-1.657-1.271-1.657c-0.204,0-0.432,0.032-0.745,0.077l-0.053,0.007
							c-1.667,0.239-1.973,1.276-2.002,1.394l-0.052,0.207l0.087,0.194c0.018,0.037,1.68,3.735,2.409,5.742
							c0.437,1.203,0.029,1.982-0.22,2.313l-2.346-0.293l-0.973-1.945l-0.405-0.812l-0.604,0.678l-1.109,1.248l-3.838-3.002
							l-3.188-2.494l2.303,3.327l0.448,0.646l-3.988-1.745l-2.192-0.959l1.459,1.897l1.355,1.761l-0.932,0.339l-9.992-8.358
							l-0.121-0.101l-0.154-0.031l-0.933-0.186L284.537,0.208z M285.391,1.004l0.934,0.186l10.264,8.585l2.053-0.746l-1.866-2.426
							l5.972,2.613l-1.68-2.427l4.292,3.359l1.493-1.679l1.119,2.239l2.987,0.373c0,0,1.306-1.12,0.559-3.172
							c-0.746-2.052-2.426-5.785-2.426-5.785s0.187-0.747,1.493-0.934c0.313-0.044,0.541-0.078,0.711-0.078
							c0.539,0,0.499,0.34,0.782,1.758c0.373,1.866,0,3.172,0,3.172l0.933,2.426l0.747,1.12l0.933,0.187l0.933,1.12v0.747
							l3.359,2.053l1.307-0.186l2.426,1.306l-0.561-8.771l1.494-0.186l0.933,11.384l2.239,0.56l2.8-7.278l0.932,0.373l-2.052,6.531
							l2.239,1.867l3.358-5.599l0.934,0.374l-3.172,5.226l2.052,2.052l5.599-6.159l1.307,1.307l-1.493,12.689l1.12,2.053
							l6.158-4.666l0.56,1.492l-4.665,3.173l0.934,2.053l5.225-3.733l0.56,1.12l-5.599,4.666l1.307,1.493l5.599-3.918l3.172,3.359
							l-6.717,4.478l1.679,1.867l5.784-4.292l1.307,1.119l-5.971,4.292l2.053,3.918l2.799,4.106l5.785-3.731l0.934,1.306
							l-5.04,3.919l0.934,0.933l5.038-3.545l1.12,0.56l-5.225,4.851l1.306,2.053l1.12-0.373l2.239,2.985l4.479-2.239l0.934,1.68
							l-3.173,2.612l0.188,1.12l1.119-0.374l0.373,1.12l-0.746,1.12l0.746,0.373l-0.373,0.934c0,0,3.919,5.225,5.785,7.277
							c1.865,2.053,3.172,3.545,3.172,3.545l0.187,1.867l2.054,2.426l1.68,0.933l1.492,1.12l4.852-1.679l0.374,1.493l-5.972,2.053
							l0.746,1.679l5.411-0.373l-0.372,1.12l-6.346,1.306l0.561,2.241l7.838-0.747l0.373,5.971l-8.585,0.933l-0.746,6.719
							l3.919-0.748l0.373,1.494l-4.479,0.559v2.053l8.398-0.373l0.186,1.307l-8.397,0.746l0.187,1.866h5.412l0.746,1.493
							l-6.531,0.373l0.746,7.091l-0.186,4.853l-6.905,3.731l-0.934,0.373l1.493,1.867l6.718-0.374l0.934,2.426l6.532-0.56
							l0.56,2.986l-7.278,0.932l0.56,2.613l0.746,0.747l14.557-1.12l1.493,10.263l-1.307-0.186l-8.024-5.599l-6.345,0.374
							l-0.374,1.306c0,0,0,2.052,0.561,3.919c0.56,1.866,2.426,4.292,2.426,4.292l7.651,4.292l-0.747,1.12l-4.852-3.172l-1.68-0.187
							l1.68,5.412l-1.308,5.039l-1.864,3.919l-1.493,3.546l0.372,4.479l-0.559,1.12l-0.747,1.119l-1.68,0.187l2.8,1.494h1.492
							l2.054,0.374c0,0,0.372,0.933,0.56,1.679c0.187,0.747,1.493,1.866,1.493,1.866l2.426,0.747l1.493,0.187l3.732,4.105
							l0.372,4.292l1.493,0.374l0.374,5.973c0,0,0,0.931-0.374,2.052c-0.373,1.121-0.187,2.986,0,3.545
							c0.188,0.561,0.188,2.426,0.188,2.426l1.119,0.747l0.373,0.933l-0.56,1.307l-8.771-0.188l-0.372,1.68l1.866-0.186l1.492,0.934
							l0.559,0.746l0.188,3.172c0,0,1.68,0.559,2.986,1.307c1.307,0.746,2.239,0.746,2.239,0.746l2.426,0.188l0.56,2.799
							l11.384-0.373l1.307,12.316v0.933l-25.566,1.681c0,0-0.56-0.188-1.679-0.375c-0.224-0.037-0.463-0.052-0.701-0.052
							c-0.956,0-1.912,0.239-1.912,0.239l-3.732,2.239l0.933,2.985l10.824-1.306l1.493,0.372l1.679,0.375l6.532-0.375l0.933,1.121
							l2.986-0.375c0,0,1.08-0.771,3.662-0.771c0.257,0,0.529,0.007,0.816,0.024c3.173,0.188,5.411,1.494,5.411,1.494
							s0.934,0.373,0.747,2.238l-0.186,1.867l2.799,2.799l2.985-1.867c0,0,0.035-0.352,0.366-0.352c0.431,0,1.361,0.597,3.366,3.34
							c3.545,4.852,9.89,13.436,9.89,13.436s2.054,2.053,2.054,2.799s-0.934,1.306-0.934,1.306l-16.981,0.934
							c0,0-1.307,0.747-0.561,2.054c0.747,1.305,1.307,2.424,3.732,3.172c1.618,0.498,4.48,0.58,6.209,0.58
							c0.862,0,1.442-0.02,1.442-0.02l6.904-0.746l-1.119,1.305l-4.479,0.746c0,0-1.307,0.374-2.239,1.307
							c-0.934,0.934-3.174,1.68-3.174,1.68s-5.41-0.186-6.344-1.119s-2.426-2.428-2.426-2.428l-1.12-0.559l-1.307,0.187l0.188,5.599
							c0,0-1.866,1.68-2.24,2.612c-0.372,0.933-0.56,2.8-0.56,2.8h1.12l1.119-0.747c0,0,1.308,0.935,1.308,1.866
							c0,0.934-1.121,1.307-1.121,1.307s0.934,0.561,0.56,1.865c-0.373,1.307-1.119,3.174-1.119,3.174l3.546,2.611l6.345-6.344
							c0,0,5.412,5.039,6.532,5.971c1.119,0.934,2.238,2.239,2.238,2.239h2.054l1.492-0.933l1.119,0.561
							c0.374,0.187,0.768,0.248,1.127,0.248c0.72,0,1.3-0.248,1.3-0.248s0.663-0.25,1.105-0.25c0.222,0,0.388,0.063,0.388,0.25
							c0,0.56,1.679,1.492,1.679,1.492l1.681-1.306l9.517,6.345l-0.187,0.746c0,0,2.986,0.561,3.732,0.747
							c0.057,0.015,0.111,0.021,0.162,0.021c0.611,0,0.771-0.954,0.771-0.954l1.679-0.56l3.546,2.612c0,0-8.585,2.053-9.145,2.426
							c-0.56,0.374-1.492,1.12-1.492,1.12l0.746,0.932l2.427-0.746l10.637-2.611l-0.934,1.306l-5.785,1.681l-1.492,0.932l0.56,0.746
							l2.985-1.119l6.346-1.305l-2.427,9.516c0,0-3.919,1.493-5.972,2.054c-2.053,0.56-4.479,1.119-4.479,1.119l-0.934,0.372
							l1.494,3.734l9.517-2.613l0.746,1.119l-9.144,2.986c0,0-0.56,0-3.732-2.611c-3.173-2.615-7.465-5.787-7.465-5.787
							s-1.866,0.187-1.306,1.307c0.56,1.12,3.358,3.174,3.358,3.174l4.666,3.918l-1.307,1.68l8.211,6.718l-0.56,0.745l-8.211-5.971
							l-2.612,3.545l13.995,10.078l-2.426,3.173l-7.838-5.786l-3.172,3.92l2.799,2.053l-4.292,7.838l-1.679-0.746l-1.307,2.426
							c0,0-0.095,0.012-0.243,0.012c-0.446,0-1.39-0.105-1.811-0.946c-0.559-1.118-1.119-2.612-1.119-2.612l-2.8-2.612l-2.799-0.933
							l-2.985-0.187l-2.8-2.612l-2.985-1.307l-8.584,0.373c0,0,0.186-2.053-0.561-3.358c-0.746-1.308-3.732-2.8-3.732-2.8
							l-1.119-2.986l-0.374-6.156l-1.679-2.055l-0.374-1.119l-0.373-1.68c0,0-3.359,0.187-4.665,0.746
							c-1.307,0.561-2.612,1.494-2.612,1.494l-0.188,1.492l-2.612,3.359l-0.933,1.68c0,0-0.119,0.059-0.383,0.059
							c-0.394,0-1.11-0.134-2.229-0.807c-1.867-1.118-3.173-1.305-3.173-1.305l-2.986-2.24l-0.746-1.12l-0.56-0.932h-1.12
							c0,0-2.053-2.054-3.172-2.427c-1.12-0.373-3.36-1.305-3.36-1.305s-1.492,0.186-0.932,1.305c0.56,1.12,2.799,2.613,2.799,2.613
							l7.277,4.852l1.866,1.866l-2.238,5.038l1.119,1.307l4.105,2.612l1.493,2.612c0,0,0.829-0.249,1.548-0.249
							c0.36,0,0.691,0.063,0.879,0.249c0.559,0.561,1.679,1.306,1.679,1.306v1.681l1.119,0.186l0.934,0.188l8.397,5.972v1.12
							c0,0-2.612,5.037-5.038,7.465c-2.427,2.426-4.293,6.158-5.226,7.65c-0.934,1.494-1.12,2.799-1.12,2.799
							s0.187,0.934,2.053,2.613s2.8,2.612,3.359,3.918c0.56,1.307,1.306,2.24,1.306,2.24l2.613-0.188l2.426-3.172
							c0,0,0.18-0.06,0.514-0.06c0.502,0,1.354,0.135,2.473,0.807c1.866,1.12,2.239,2.8,2.239,2.8s0.373,0.371-5.973,0.745
							c-3.172,0.187-5.225,0.233-6.484,0.233c-1.259,0-1.726-0.047-1.726-0.047l-3.359-2.053l-3.919-0.186l-1.866-0.561
							c0,0-4.853,0-6.531-0.746c-1.68-0.746-3.173-2.612-3.919-2.612s-4.292,1.866-4.292,1.866l-2.8,2.984l-3.919-3.172
							c0,0-0.537-0.201-1.129-0.201c-0.394,0-0.812,0.09-1.11,0.389l-0.746,0.746l-1.493-0.746c0,0-3.919,2.238-5.412,3.73
							c-1.492,1.494-3.546,3.733-3.546,3.733s0.188,1.307,0.374,2.054c0.187,0.746,1.866,1.865,1.866,1.865l1.306,0.934
							c0,0,0.934,2.426,1.12,2.986c0.187,0.559,0.187,3.545,0.187,3.545l-1.866,8.582l1.866,9.146c0,0,0.746,1.492,0.934,2.053
							c0.186,0.559,0.56,4.852,0.56,4.852l0.933,5.973l2.239,14.367H50.63l-0.56-1.305l0.186-3.732l-1.306-2.801l-0.374-3.357
							c0,0-1.492-7.092-2.053-10.078c-0.559-2.984-1.866-7.464-1.866-7.464l0.187-2.427c0,0-2.239-3.919-2.426-7.836
							c-0.187-3.92-0.374-5.786-0.374-5.786l-1.866-3.731l-0.56-4.666l-2.799-6.158c0,0-1.306-2.613-1.306-4.853
							s-1.119-8.397-1.119-8.397l-2.986-11.197l-0.187-3.358l-1.493-3.358l-0.56-5.04l-1.866-8.584l-0.747-4.292l-0.373-4.852
							l-1.12-2.799l-0.747-3.359l-0.933-8.771l0.373-8.211l-0.747-2.239c0,0-1.493-5.784-1.493-7.464
							c0-1.681,0.186-4.293,0.186-4.293l-1.493-4.105l0.747-2.053l-0.56-2.799c0,0-0.374-3.359,0-4.293
							c0.373-0.934,0.747-3.918,0.747-3.918l-0.187-8.211l-0.374-1.307l0.374-3.359l-1.68-12.316c0,0-0.372-2.24-0.372-3.732
							s0.372-2.799,0.372-2.799l-2.052-7.465l-0.56-7.465l-1.12-3.919l-1.492-3.358l-1.12-6.158c0,0-0.373-14.556-0.747-17.729
							c-0.373-3.172-1.679-7.091-1.679-7.091l-0.561-9.331l-0.933-3.545l-0.373-3.173l-0.933-5.411l-0.934-15.863l-0.374-19.221
							l0.188-7.464c0,0-0.188-0.933-1.307-3.546c-1.119-2.612-2.239-4.479-2.239-4.479l-0.187-1.866l-1.866-1.118l0.933-0.935
							l0.747-0.186l0.559-2.053l-0.186-1.12l-1.493-0.745l1.306-0.748l0.933-0.933h0.934l0.373-2.426l0.374-2.612l1.68-0.187
							l0.373-2.052l0.746-2.053l2.052,0.186l1.121-1.679v-1.12l1.492,1.12l2.612-1.12l1.12-1.68l2.986-2.425
							c0,0,2.052-0.746,3.358-2.426c1.307-1.68,4.852-5.598,4.852-5.598l-0.373-1.12l1.68,0.188l0.747,0.186h5.785
							c5.599,0,7.278-0.186,7.278-0.186l2.426-0.934l1.119-0.56l2.053,1.119l1.866,0.56l1.68,0.187l1.307,2.053
							c0,0,0.307,1.023,1.832,1.023c0.534,0,1.217-0.125,2.087-0.464l3.359-1.307l0.187-1.306l1.306,0.933l1.68,1.307
							c0,0,0.012,0.012,0.052,0.012c0.123,0,0.508-0.105,1.627-0.946l1.493-1.119l1.12,0.56c0,0,0.029,0.089,0.197,0.089
							c0.25,0,0.811-0.202,2.042-1.209c2.053-1.68,5.412-4.853,5.412-4.853s0.187,0.374,1.68,0.561
							c0.135,0.017,0.295,0.024,0.474,0.024c1.794,0,5.498-0.771,5.498-0.771l5.039-5.412c0,0,2.239-1.867,5.785-12.316
							c3.545-10.451,5.039-16.049,5.039-16.049s0-1.68,0.56-1.866c0.559-0.186,1.306-1.12,1.306-1.12v-1.12l0.747-0.56l1.679-5.225
							l0.747-1.306l1.307-2.799v-3.732l0.746-1.12l1.12-1.866c0,0,1.68-5.973,2.053-9.331c0.374-3.36,0.187-5.973,0.187-5.973
							l1.494-0.933v-9.89l2.612,0.746c0,0,1.493,1.868,2.239,3.732c0.747,1.866,2.612,2.613,4.478,2.986
							c1.867,0.375,8.585-0.373,10.823,1.493c2.241,1.867,5.972,5.226,5.972,5.226l2.987,2.614c0,0,3.358,3.358,8.583,4.851
							c2.613,0.747,4.48,0.934,5.693,0.934c1.212,0,1.772-0.187,1.772-0.187l3.359,0.373c0,0,7.091-1.119,11.943-2.612
							c4.853-1.492,9.705-3.358,9.705-3.358s0.747,0.745,2.986,1.118c0.313,0.052,0.618,0.076,0.917,0.076
							c1.842,0,3.449-0.873,5.053-1.194c1.867-0.375,5.972-1.121,5.972-1.121l2.612,0.373c0,0,3.733-3.358,6.345-3.358
							c2.613,0,5.972-0.373,5.972-0.373l5.225-0.746c0,0,1.867-0.56,4.106-1.12c2.227-0.558,2.424-1.298,2.427-1.307l-0.561,2.239
							c0,0-4.479,0.188-8.397,1.307c-3.919,1.12-12.317,4.852-12.317,4.852l1.307,2.986c0,0,3.732-0.374,6.532-0.933
							c2.799-0.56,6.531-0.746,6.531-0.746l-0.186-2.986l19.595-2.986l0.933,2.612l4.105-0.373c0,0,0.373,3.919,0.56,4.852
							l0.188,0.934l4.292-0.934c0,0,0.934,0,1.306-0.746c0.374-0.747-1.12-9.517-1.12-9.517l0.934,0.373l0.561,4.292l1.679-0.56
							l-0.747-6.532l0.934,0.561l0.934,5.785l2.426-0.188l-0.56-6.717h1.12l0.373,5.225c0,0,1.68-0.187,3.359-1.12
							c0.4-0.222,0.947-0.307,1.551-0.307c1.928,0,4.42,0.866,4.42,0.866v-3.732c0,0,0.561-5.411,3.173-6.344
							c1.15-0.411,1.902-0.568,2.433-0.568c0.672,0,0.986,0.254,1.299,0.568c0.561,0.56,0,1.307,0,1.307s0-0.747-1.119-0.935
							c-0.127-0.021-0.287-0.038-0.471-0.038c-1.441,0-4.36,1.007-4.194,8.622c0.114,5.28,3.335,6.465,5.928,6.465
							c1.623,0,3.001-0.464,3.216-0.681c0.561-0.56,5.226-4.478,5.226-4.478l2.239-2.8l1.12,1.493v0.934l8.024-2.053l0.373,1.119
							l1.119,0.188l2.426-0.746l0.374-1.68l-3.546-0.186V8.842l-8.957-7.091l0.932-0.746c0,0,1.307,0.934,2.427,1.493l1.12,0.56
							L285.391,1.004L285.391,1.004z"/>
					</g>
					<path id="Stroke-4" sketch:type="MSShapeGroup" fill="none" stroke="#5C5C5C" stroke-width="3" d="M133.338,447.223
						c0,0-0.785-13.273-2.277-18.498c-1.494-5.225-0.747-23.887-0.747-23.887s0.498-7.216,3.732-11.196
						c3.235-3.981,9.705-13.188,19.906-13.438c10.202-0.247,16.173,1.494,22.394-1.491c6.22-2.987,8.708-5.973,8.708-5.973
						s10.451-11.197,11.944-15.924c1.493-4.729,1.99-13.686,2.239-18.165c0.249-4.479,4.479-14.681,7.713-18.909
						c3.235-4.23,9.456-9.953,25.877-15.925s16.174-5.723,25.379-3.981c9.207,1.742,17.916,1.494,23.888,0.25
						c5.971-1.244,10.201,0.249,14.929-0.996c4.728-1.244,11.196-4.729,15.924-7.963c4.729-3.234,9.455-3.98,9.455-3.98
						s10.45-4.479,14.432-9.206s14.432-19.657,14.432-19.657s13.437-15.676,15.427-29.111c1.991-13.438-1.493-17.667-1.493-18.662
						c0-0.996-0.497-8.958-0.497-8.958l-0.996-21.896c0,0-0.995-3.981-5.474-9.455c-4.479-5.473-9.952-9.703-9.703-15.178
						c0.248-5.474,1.741-12.192,3.234-13.685"/>
					<path id="Stroke-6" sketch:type="MSShapeGroup" fill="none" stroke="#5C5C5C" stroke-width="3" d="M367.341,447.781
						l-10.352-61.107c0,0-1.991-12.938-3.981-16.422c-1.991-3.484-5.723-9.207-6.719-12.193c-0.995-2.984-5.474-20.152-5.474-20.152
						s-7.963-26.873-9.953-31.103c-1.99-4.231-8.957-20.405-9.952-22.892c-0.996-2.489-3.732-10.202-1.99-17.168
						c1.741-6.968,4.479-9.207,4.479-9.207s4.23-6.221,5.723-14.184c1.492-7.961,4.229-16.67,4.229-16.67s0.996-14.93-0.995-19.409
						c-1.991-4.478-6.718-8.957-6.718-8.957s-3.732-3.234-1.244-10.451l2.488-7.216l0.498-6.22l-0.996-14.93
						c0,0-1.244-4.479-2.239-7.713c-0.994-3.234-2.239-7.962-0.994-11.694c1.243-3.732,3.979-5.723,3.979-5.723l6.471-4.978
						l14.929-14.928l16.92-15.427c0,0,3.483-1.245,5.971-4.479c2.488-3.235,8.584-11.071,8.584-11.071"/>
					<path id="Stroke-8" sketch:type="MSShapeGroup" fill="none" stroke="#5C5C5C" stroke-width="3" d="M295.033,158.508
						c0,0,12.067-0.125,16.048,0.994c3.981,1.12,11.198,1.493,13.438,4.354s2.487,5.973,2.487,5.973"/>
					<path id="Stroke-10" sketch:type="MSShapeGroup" fill="none" stroke="#5C5C5C" stroke-width="3" d="M111.84,2.497
						c0,0-1.307,5.599,3.918,11.944c5.226,6.344,10.824,13.435,10.824,13.435s11.57,4.479,16.795,5.973
						c5.226,1.492,13.063,3.358,14.184,3.731c1.12,0.373,5.225,0,9.331-1.492c4.105-1.494,15.302-5.227,15.302-5.227"/>
					<path id="Stroke-12" sketch:type="MSShapeGroup" fill="none" stroke="#5C5C5C" stroke-width="0.75" d="M179.892,31.671
						c0,0,7.402-3.109,10.14-1.182c3.051,2.149,4.105,5.226,4.105,5.226l12.689,10.077c0,0,3.359,1.866,6.345,1.866
						c2.985,0,12.316-1.68,12.316-1.68l10.078-1.679l29.111-4.853h4.852l3.359,22.768l12.316,75.392l3.732,16.049l1.12,3.731"/>
					<path id="Stroke-14" sketch:type="MSShapeGroup" fill="none" stroke="#5C5C5C" stroke-width="0.75" d="M182.38,30.801
						c0,0,6.531-2.177,10.451-2.55c3.918-0.374,6.904-2.053,8.398-3.174c1.493-1.119,6.718-1.306,6.718-1.306l26.872-4.292
						l7.465,6.345l4.292-1.119l2.239,6.904l62.89-10.824l13.622-1.492c0,0,9.891,7.277,12.316,10.45
						c2.427,3.173,27.992,39.376,27.992,39.376l10.824,13.996l2.053,8.958c0,0-1.12,20.714-2.426,24.073
						c-1.307,3.359-24.26,25.194-24.26,25.194"/>
					<path id="Stroke-16" sketch:type="MSShapeGroup" fill="none" stroke="#5C5C5C" stroke-width="0.75" d="M262.624,29.37
						l17.915,112.343"/>
					<path id="Stroke-18" sketch:type="MSShapeGroup" fill="none" stroke="#5C5C5C" stroke-width="0.75" d="M359.477,63.333
						L236.125,185.566l-47.96,3.172l-11.011-66.807l-1.306-3.173l-0.56-2.612v-1.68l-0.187-0.932l-95.919,5.784l-33.404,1.866
						c0,0,0.933,0-7.465-0.747c-8.397-0.746-11.943-1.306-17.728-0.934l-5.785,0.375l-0.934-0.187l-5.039,3.171l-3.359-0.186
						c0,0-0.56,2.612,0.187,3.732c0.746,1.12,4.479,5.413,4.853,6.719c0.372,1.306,2.425,23.326,2.425,23.326
						s1.867,7.278,1.679,11.385c-0.187,4.105,0,12.502,0,12.502l2.24,24.633l2.053,20.901l5.411,52.438l0.934,8.771l-1.12,12.317
						c0,0,1.866,13.063,2.425,15.302c0.56,2.239,1.12,3.358,1.12,3.358l4.479,3.546l3.546,2.8l0.747,0.187
						c0,0-0.374,4.479,0.56,6.532c0.933,2.052,6.532,10.821,6.532,10.821s0.373,5.04,0.559,7.279s0.56,3.919,0.56,3.919l5.226,8.958
						c0,0,0.747,3.172,0.747,5.598v20.154l-0.375,9.519c0,0,1.867,5.971,2.613,8.21c0.747,2.24,6.159,16.049,6.159,16.049
						s2.426,9.518,2.239,12.877c-0.187,3.359-0.373,9.145-0.373,9.145l1.119,2.799"/>
					<path id="Stroke-20" sketch:type="MSShapeGroup" fill="none" stroke="#5C5C5C" stroke-width="0.75" d="M59.774,425.365
						l33.964-12.504l32.844-11.569c0,0,7.838-0.745,10.077-0.745c2.24,0,18.475,0.186,18.475,0.186s2.239-0.56,2.426,1.307
						c0.186,1.865-0.188,28.738-0.188,28.738l1.556,16.484"/>
					<path id="Stroke-22" sketch:type="MSShapeGroup" fill="none" stroke="#5C5C5C" stroke-width="0.75" d="M148.229,447.385
						c0,0,2.053-17.354,2.985-21.459c0.934-4.105,4.852-23.326,4.852-23.326s2.053-3.36,4.106-5.973
						c2.052-2.612,11.943-14.93,11.943-14.93s2.053-0.186,5.038-1.119c2.986-0.934,6.905-2.426,8.958-5.039
						c2.053-2.613,10.265-9.33,12.69-10.076c2.426-0.747,7.464-3.732,7.464-3.732s6.906-4.666,11.01-9.518
						c4.105-4.853,6.345-6.719,6.345-6.719s7.839-14.93,8.585-17.914c0.747-2.986,3.173-9.52,3.173-9.52l6.158-8.955l1.865-1.867
						l16.548-7.154"/>
					<path id="Stroke-24" sketch:type="MSShapeGroup" fill="none" stroke="#5C5C5C" stroke-width="0.75" d="M130.688,400.918
						l0.187-19.406c0,0,0.373-5.973-0.374-9.891c-0.746-3.92-3.919-17.169-3.919-17.169l-7.651-9.892l0.374-18.287l0.373-25.006
						l-1.12-17.916l-0.747-20.9l-2.239-40.122l-2.239-38.816l-0.934-12.502l-1.866-4.666l-2.426-9.891l-2.612-5.598
						c0,0-1.494-1.12-4.292-1.493c-2.799-0.373-5.599-0.187-5.599-0.187l-2.612-0.746l-0.747-1.121v-1.679l-3.358-55.238
						c0,0,3.172-0.187,3.732-0.187c0.559,0,2.612-1.679,2.612-1.679s2.612-1.866,3.173-4.106c0.559-2.238,2.426-7.463,2.426-7.463
						l1.866-9.332l0.747-1.865l-0.373-4.853l1.68-0.933l1.866-3.919l1.493-1.307v-3.732c0,0,0-2.799,2.426-7.836
						c2.426-5.04,6.345-12.318,6.345-12.318l0.374-2.052l0.251-1.573l0.495-3.092l1.492-3.173l4.479-2.426l-2.426-2.985
						l-1.866-1.119l-3.359,2.239l-0.187,2.614l0.933,1.118l-0.373,1.494l-1.493,4.479l2.24,1.307"/>
					<path id="Stroke-26" sketch:type="MSShapeGroup" fill="none" stroke="#5C5C5C" stroke-width="0.75" d="M15.36,178.66
						l146.865-7.65c0,0,1.866-0.933,4.666-2.8c2.799-1.866,8.398-3.732,8.398-3.732l2.986-1.492l1.12-2.985l-1.306-4.667
						l-0.187-1.306l1.493-1.68l4.292-0.933l4.479,0.188c0,0,6.158-1.121,6.718-1.121c0.559,0,36.39-5.785,36.39-5.785l44.041-6.717
						l0.933,5.411l2.985,4.105l3.173,2.613l5.599,88.455l-17.542,36.016c0,0,0.374,6.904-0.933,9.705
						c-2.047,4.383-3.928,5.107-11.819,15.301"/>
					<path id="Stroke-28" sketch:type="MSShapeGroup" fill="none" stroke="#5C5C5C" stroke-width="0.75" d="M262.687,293.24
						l-15.737,2.055l-16.423,9.332"/>
					<path id="Stroke-30" sketch:type="MSShapeGroup" fill="none" stroke="#5C5C5C" stroke-width="0.75" d="M249.748,304.066
						l-3.173-9.518c0,0,7.651-3.545,10.638-6.158c2.984-2.613,8.397-7.65,9.703-9.891c1.306-2.238,4.293-11.57,4.293-11.57
						l5.038-17.916l-0.561-10.262l-6.718-85.843"/>
					<path id="Stroke-32" sketch:type="MSShapeGroup" fill="none" stroke="#5C5C5C" stroke-width="0.75" d="M275.314,239.124
						l42.361-0.56c0,0,8.584-3.732,9.89-4.292c1.307-0.561,14.183-0.561,14.183-0.561l11.757-1.306l18.288-0.934l7.278-0.187"/>
					<path id="Stroke-34" sketch:type="MSShapeGroup" fill="none" stroke="#5C5C5C" stroke-width="0.75" d="M328.126,446.08
						l-10.451-26.313c0,0-0.372-9.145,1.494-13.064c1.865-3.918,6.904-17.727,6.904-17.727l4.105-9.518l5.038-5.785l10.823-9.891
						l1.68-8.398l5.039-13.996l10.823-31.538l12.131-43.294l3.358-10.451l1.493-7.092l-0.747-6.717l-5.225-74.832l-2.426-34.897
						c0,0-18.288-19.408-20.341-21.274c-2.053-1.867-19.595-19.968-19.595-19.968l-2.427-17.542l-3.358-18.848l-34.71-30.418"/>
					<path id="Stroke-36" sketch:type="MSShapeGroup" fill="none" stroke="#5C5C5C" stroke-width="0.75" d="M295.531,158.508
						c0,0-7.092-1.867-11.57-1.867c-4.479,0-10.575,0.372-10.575,0.372l-3.981,0.623"/>
					<path id="Stroke-38" sketch:type="MSShapeGroup" fill="none" stroke="#5C5C5C" stroke-width="0.75" d="M280.539,156.641
						c0,0-4.541-1.991-5.412-3.111c-0.871-1.12-3.482-5.1-3.98-9.579c-0.498-4.479-1.119-9.083-1.119-9.083"/>
					<path id="Stroke-40" sketch:type="MSShapeGroup" fill="none" stroke="#5C5C5C" stroke-width="0.75" d="M180.078,138.601
						l-23.264,3.981c0,0-7.34,1.12-9.331,1.12c-1.99,0-18.413,1.119-18.413,1.119l-54.74,3.235l-61.707,3.11"/>
					<path id="Stroke-42" sketch:type="MSShapeGroup" fill="none" stroke="#5C5C5C" stroke-width="0.75" d="M106.054,151.976
						c0,0-0.248-2.427,1.742-3.422c1.99-0.995,5.349-1.121,5.349-1.121h5.101l8.211,0.125l1.991-0.498l0.87-1.119l-0.87-11.82
						l-1.245-23.761l-0.995-15.427c0,0,1.244-4.604,1.866-5.972s4.853-7.589,4.853-7.589l2.114-5.847l0.249-3.359l0.499-40.93"/>
					<path id="Stroke-44" sketch:type="MSShapeGroup" fill="none" stroke="#5C5C5C" stroke-width="0.75" d="M57.535,184.073
						l1.494-6.158l0.373-1.306h-4.292l1.68,5.41l1.12,2.862l3.359,72.158l3.235,51.007c0,0,1.12,1.867,2.24,2.364
						c1.12,0.498,3.856,0.746,3.856,0.746l1.369-0.995l2.987-3.731c0,0,2.612-0.871,3.358-0.623
						c0.746,0.249,6.842,2.612,6.842,2.612l2.986,1.494c0,0,4.728,6.841,4.852,7.587c0.124,0.748-3.36,11.322-3.36,11.322
						l-0.746,54.119l-0.125,4.23l-1.617,3.359l-0.25,17.293l3.483,5.971"/>
					<path id="Stroke-46" sketch:type="MSShapeGroup" fill="none" stroke="#5C5C5C" stroke-width="0.75" d="M36.51,324.096
						c0,0,5.599-15.426,6.966-17.293c1.37-1.867,8.087-10.326,8.087-10.326l4.354-3.732c0,0,4.479-0.746,5.723,2.488
						c1.244,3.234,1.99,3.109,1.99,3.109l3.608-6.221"/>
					<path id="Stroke-48" sketch:type="MSShapeGroup" fill="none" stroke="#5C5C5C" stroke-width="0.75" d="M25.437,286.15
						l13.686,0.373c0,0,5.599,1.865,6.966,2.986c1.369,1.119,4.23,2.364,4.23,2.364l3.857,0.497l14.431-0.497l59.717-2.489
						c0,0,1.245,0.126,1.245,2.614c0,2.487-2.737,61.831-2.737,61.831"/>
					<path id="Stroke-50" sketch:type="MSShapeGroup" fill="none" stroke="#5C5C5C" stroke-width="0.75" d="M129.07,289.882
						c0,0,16.422-17.417,17.417-17.913c0.996-0.498,1.244-1.246,10.45-2.738c9.207-1.494,14.432-2.986,14.432-2.986
						s4.727-3.359,4.852-3.731c0.124-0.373,1.866-4.231,1.866-4.231s4.603-5.846,6.842-7.215c2.239-1.368,13.188-5.102,13.188-5.102
						s9.082-2.612,10.078-2.488c0.995,0.125,3.607,0.498,3.607,0.498l4.853-5.972c0,0,1.866-1.119,6.47-1.243
						c4.603-0.125,18.91-0.996,18.91-0.996l-4.853-50.883c0,0-5.101,1.493-6.843,1.991c-1.742,0.498-5.35,3.855-7.962,3.855
						c-2.613,0-5.599-0.124-5.599-0.124s-6.842,2.612-7.34,5.101c-0.498,2.488,0.249,4.23,0.249,4.23l2.613,0.87l5.1,5.972
						l2.364,0.996l0.499,2.238l-2.364,4.603l-1.617,3.111l-2.613,14.557c0,0-1.494,4.354-2.114,4.852
						c-0.623,0.497-0.499,3.11-0.499,3.607c0,0.498-0.124,2.986-0.124,2.986"/>
					<path id="Stroke-52" sketch:type="MSShapeGroup" fill="none" stroke="#5C5C5C" stroke-width="0.75" d="M178.088,257.535
						l-2.985-2.239l-1.245-2.985l-1.368-3.11l-2.364-1.989l-2.986-3.733l6.096,0.995l3.981,0.994l4.23,1.744
						c0,0,1.119,0.869,1.494,0.869c0.373,0,5.598,0.622,5.598,0.622s1.99,2.239,2.488,2.986s4.105,6.47,4.105,6.47
						s3.235,1.119,5.724,1.369c2.488,0.248,3.732,1.117,3.732,1.117l0.746,1.618V265c0,0,0.747,0.746,1.741,0.996
						c0.996,0.248,2.488,0.125,2.488,0.125l1.867,2.113l2.612,2.115l1.742,0.498l0.497,8.707l-3.234,3.111
						c0,0-1.368,1.121-0.995,1.742c0.373,0.622,0.995,1.492,1.99,1.492c0.996,0,3.608-0.996,3.608-0.996s1.12-0.123,1.866,0.375
						c0.747,0.497,1.99,2.238,1.99,2.238l3.111,1.493l21.958,5.538"/>
					<path id="Stroke-54" sketch:type="MSShapeGroup" fill="none" stroke="#5C5C5C" stroke-width="0.75" d="M129.195,303.193
						l10.202,6.096c0,0,2.737,6.221,3.981,7.59c1.245,1.369,5.847,3.857,5.847,3.857s11.571,5.723,13.561,6.096
						s21.771,5.973,21.771,5.973l4.852,1.865l14.68,7.588l5.351,3.608l7.713,7.589l3.856,5.225l20.653,11.322l9.081,2.487
						l9.081,3.358c0,0,12.068,7.467,13.063,8.709c0.995,1.246,5.351,2.737,5.351,2.737l14.928,5.35l22.271,7.341l5.847,2.239"/>
					<path id="Stroke-56" sketch:type="MSShapeGroup" fill="none" stroke="#5C5C5C" stroke-width="0.75" d="M129.195,401.479
						l-0.125-15.429c0,0,5.474-5.35,6.843-6.095c1.368-0.748,7.215-3.36,7.215-3.36l3.359-0.87c0,0,4.23-0.373,7.091,1.12
						c2.861,1.493,5.474,2.113,5.474,2.113l3.855,1.373"/>
					<path id="Stroke-58" sketch:type="MSShapeGroup" fill="none" stroke="#5C5C5C" stroke-width="0.75" d="M154.077,376.971
						l20.652-0.252c0,0,2.612,0.373,3.856-1.74c1.244-2.115,2.613-2.986,2.613-2.986l4.728-2.985l8.833-13.562l7.838-11.818
						l12.689-19.408l7.963-13.311c0,0,2.736-2.115,4.229-2.738c1.492-0.622,5.1-2.861,5.1-2.861l3.36-1.492l2.364-1.99"/>
					<path id="Stroke-60" sketch:type="MSShapeGroup" fill="none" stroke="#5C5C5C" stroke-width="0.75" d="M187.169,333.55
						c0,0,20.154-0.249,20.652-0.125c0.498,0.125,8.336-0.497,8.336-0.497l13.561-2.238l6.47-0.25h0.995"/>
					<path id="Stroke-62" sketch:type="MSShapeGroup" fill="none" stroke="#5C5C5C" stroke-width="0.75" d="M158.929,398.367
						l18.786-8.461l18.662-7.711c0,0,7.712-4.605,10.077-7.217c2.364-2.613,12.565-14.93,12.565-14.93l16.423-27.244l10.822-18.041
						l9.829-11.943c3.224-0.879,2.338-1.492,5.723-1.492c3.766,0,0.995-0.747,5.599-0.374"/>
					<path id="Stroke-64" sketch:type="MSShapeGroup" fill="none" stroke="#5C5C5C" stroke-width="0.75" d="M270.897,176.173
						l103.695-8.708"/>
					<path id="Stroke-66" sketch:type="MSShapeGroup" fill="none" stroke="#5C5C5C" stroke-width="0.75" d="M290.057,157.387
						l4.977,80.742"/>
					<path id="Stroke-68" sketch:type="MSShapeGroup" fill="none" stroke="#5C5C5C" stroke-width="0.75" d="M319.418,171.694
						l4.976,56.232l1.741,6.721"/>
					<path id="Stroke-70" sketch:type="MSShapeGroup" fill="none" stroke="#5C5C5C" stroke-width="0.75" d="M175.102,113.533
						c0,0,19.906-2.55,24.136-3.048s26.624-3.982,26.624-3.982s8.957-2.985,14.182-3.482c5.227-0.499,29.112-4.23,29.112-4.23
						l4.479,3.484l55.237-9.207"/>
					<path id="Stroke-72" sketch:type="MSShapeGroup" fill="none" stroke="#5C5C5C" stroke-width="0.75" d="M268.408,98.542
						l63.45-8.958"/>
					<path id="Stroke-74" sketch:type="MSShapeGroup" fill="none" stroke="#5C5C5C" stroke-width="0.75" d="M278.859,129.956
						l15.116-2.054l22.953,23.887"/>
					<path id="Stroke-76" sketch:type="MSShapeGroup" fill="none" stroke="#5C5C5C" stroke-width="0.75" d="M322.527,146.937
						l-12.689,11.943"/>
					<path id="Stroke-78" sketch:type="MSShapeGroup" fill="none" stroke="#5C5C5C" stroke-width="0.75" d="M313.383,154.773
						l-23.14-23.139l-67.616,10.948l-36.234,5.94c0,0-2.987,1.587-4.013,2.893"/>
					<path id="Stroke-80" sketch:type="MSShapeGroup" fill="none" stroke="#5C5C5C" stroke-width="0.75" d="M299.573,140.966
						l68.581-68.582"/>
					<path id="Stroke-82" sketch:type="MSShapeGroup" fill="none" stroke="#5C5C5C" stroke-width="0.75" d="M304.612,145.444
						l67.647-67.647"/>
					<path id="Stroke-84" sketch:type="MSShapeGroup" fill="none" stroke="#5C5C5C" stroke-width="0.75" d="M308.531,149.922
						l57.29-56.917"/>
					<path id="Stroke-86" sketch:type="MSShapeGroup" fill="none" stroke="#5C5C5C" stroke-width="0.75" d="M308.345,92.818
						l3.546,17.916l27.618,27.62c0,0,1.4,2.706,4.106,5.411c2.705,2.708,5.038,6.159,5.038,6.159l0.187,1.959"/>
					<path id="Stroke-88" sketch:type="MSShapeGroup" fill="none" stroke="#5C5C5C" stroke-width="0.75" d="M356.305,168.584
						l-51.506-50.944l-1.307-2.241l2.986-0.746l-3.172-21.086"/>
					<path id="Stroke-90" sketch:type="MSShapeGroup" fill="none" stroke="#5C5C5C" stroke-width="0.75" d="M293.229,95.245
						l4.666,28.738l23.326,23.699"/>
					<path id="Stroke-92" sketch:type="MSShapeGroup" fill="none" stroke="#5C5C5C" stroke-width="0.75" d="M288.563,95.618
						l5.412,32.284"/>
					<path id="Stroke-94" sketch:type="MSShapeGroup" fill="none" stroke="#5C5C5C" stroke-width="0.75" d="M282.592,118.571
						l20.901-3.172"/>
					<path id="Stroke-96" sketch:type="MSShapeGroup" fill="none" stroke="#5C5C5C" stroke-width="0.75" d="M368.248,97.67
						c0,0-0.934-4.292-4.292-6.717c-3.359-2.427-16.796-16.795-16.796-16.795l-1.586-1.68l-10.974,1.766"/>
					<path id="Stroke-98" sketch:type="MSShapeGroup" fill="none" stroke="#5C5C5C" stroke-width="0.75" d="M362.836,95.618
						l-17.729-18.102"/>
					<path id="Stroke-100" sketch:type="MSShapeGroup" fill="none" stroke="#5C5C5C" stroke-width="0.75" d="M359.291,86.753
						l-5.039,5.413l-0.094,2.332l4.945,4.945"/>
					<path id="Stroke-102" sketch:type="MSShapeGroup" fill="none" stroke="#5C5C5C" stroke-width="0.75" d="M326.446,54.936
						l6.158,5.785l1.996,13.523l1.736,11.764"/>
					<path id="Stroke-104" sketch:type="MSShapeGroup" fill="none" stroke="#5C5C5C" stroke-width="0.75" d="M349.586,46.445
						c0,0-0.746,1.212-1.959,1.586c-1.213,0.373-31.725,4.945-31.725,4.945s-4.572,0.653-6.345,1.306
						c-1.773,0.653-10.637,1.587-10.637,1.587l-49.267,7.837l-30.792,4.666"/>
					<path id="Stroke-106" sketch:type="MSShapeGroup" fill="none" stroke="#5C5C5C" stroke-width="0.75" d="M237.525,183.887
						l-1.68-22.767c0,0,0-1.959-0.934-3.265c-0.934-1.307-2.333-2.333-2.333-2.333l-0.56-1.866l-2.52-19.595l-4.199-26.874
						l-4.198-25.846l-5.879-33.684"/>
					<path id="Stroke-108" sketch:type="MSShapeGroup" fill="none" stroke="#5C5C5C" stroke-width="0.75" d="M167.14,243.478
						l-0.436-1.927c0,0,1.12-0.934,1.306-2.613c0.187-1.679-3.172-3.359-3.172-3.359l-5.039-9.517c0,0-5.039-5.038-5.972-6.532
						c-0.933-1.492-0.933-3.359-0.933-3.359l-0.561-13.249l-1.679-31.353"/>
					<path id="Stroke-110" sketch:type="MSShapeGroup" fill="none" stroke="#5C5C5C" stroke-width="0.25" d="M109.414,46.538
						c0,0,2.239,1.742,3.483,3.98c1.245,2.24,1.742,2.487,1.493,3.982c-0.248,1.493-1.244,1.493-1.493,2.24
						c-0.249,0.745-1.493,1.741-0.995,3.731c0.497,1.991,1.493,2.238,1.493,2.238s1.991,1.246,2.985,2.489
						c0.995,1.245,0.747,2.737,1.493,2.987c0.746,0.249,2.487-0.499,2.487-0.499l3.235-2.488h2.489l1.493-0.25
						c0,0,0.248-1.74,0.995-1.492c0.746,0.248,1.991,0.248,1.991,0.248l3.732-2.488l2.737,0.996l0.747,1.244l4.23-2.49l2.24-1.74
						l3.732-0.498l4.23,3.732l0.746,0.996l2.738,0.995l2.239,3.235l1.991,2.737l1.493,1.742h3.235c0,0,1.99,1.244,2.488,2.239
						c0.497,0.995,0.249,3.234,0.249,3.234l0.498,3.235l-0.746,1.244l-1.493,0.996l2.737,57.477"/>
					<path id="Stroke-112" sketch:type="MSShapeGroup" fill="none" stroke="#5C5C5C" stroke-width="0.25" d="M61.392,120.686v-7.713
						c0,0,0.499-1.494-1.742-2.737c-2.239-1.244-6.967-3.732-6.967-3.732l-2.24-0.995l-5.971-7.464l3.234-2.987
						c0,0,2.24-0.499,4.23,0.497c1.99,0.997,4.229,1.991,4.229,1.991l3.982-0.249l2.985-2.239c0,0,2.737-1.244,3.732-0.996
						c0.996,0.25,1.742,1.493,2.737,1.743c0.995,0.248,2.985-0.25,2.985-0.25s1.245-0.248,2.239-1.243
						c0.996-0.996,0.747-2.985,0.747-2.985l2.24-1.245l1.742,0.498h8.708"/>
					<path id="Stroke-114" sketch:type="MSShapeGroup" fill="none" stroke="#5C5C5C" stroke-width="0.25" d="M72.837,95.555
						l2.736,51.008"/>
					<path id="Stroke-116" sketch:type="MSShapeGroup" fill="none" stroke="#5C5C5C" stroke-width="0.25" d="M55.171,121.931
						l1.742,26.623"/>
					<path id="Stroke-118" sketch:type="MSShapeGroup" fill="none" stroke="#5C5C5C" stroke-width="0.25" d="M12.374,137.606
						l71.411-3.981l42.797-2.239l8.211-0.747l30.605-1.99l3.98,1.244l8.708-1.244l48.52-7.713l48.769-7.961l34.834-5.724"/>
					<path id="Stroke-120" sketch:type="MSShapeGroup" fill="none" stroke="#5C5C5C" stroke-width="0.25" d="M73.584,105.508
						l53.496-3.235l23.39-1.742l15.675-2.986l55.736-8.958l131.251-21.025l-1.617-10.202"/>
					<path id="Stroke-122" sketch:type="MSShapeGroup" fill="none" stroke="#5C5C5C" stroke-width="0.25" d="M90.006,97.048
						l75.889-3.981"/>
					<path id="Stroke-124" sketch:type="MSShapeGroup" fill="none" stroke="#5C5C5C" stroke-width="0.25" d="M124.591,18.421
						c0,0,1.991-0.249,2.986,0c0.996,0.248,3.981,2.489,3.981,2.489l3.235,1.493l-0.249,4.229l0.746,1.244l2.24,2.985l-0.25,2.737
						l-1.244,4.977l1.244,2.488l1.991,0.747l1.244,2.239l0.995,1.245l2.24-0.499l2.239-2.24l1.493-0.995l1.991-2.238l2.239-3.733
						c0,0,6.718,2.24,7.714,3.233c0.995,0.996,0.995,2.24,0.995,2.24s0.996,1.743,1.991,2.737c0.996,0.996,7.714,4.728,7.714,4.728
						l5.474-10.451"/>
					<path id="Stroke-126" sketch:type="MSShapeGroup" fill="none" stroke="#5C5C5C" stroke-width="0.25" d="M171.121,36.089
						l-5.722,9.704"/>
					<path id="Stroke-128" sketch:type="MSShapeGroup" fill="none" stroke="#5C5C5C" stroke-width="0.25" d="M167.388,47.534
						c0,0-2.736,2.985-2.488,4.479c0.249,1.492,0,6.22,0,6.22l-2.736,3.235l-2.488,2.488l0.249,6.469"/>
					<path id="Stroke-130" sketch:type="MSShapeGroup" fill="none" stroke="#5C5C5C" stroke-width="0.25" d="M170.125,35.341
						l13.934,7.464c0,0,0.746,1.991,1.244,2.987c0.498,0.994,2.239,3.731,2.239,3.731l2.985,3.235c0,0,2.986,1.742,4.479,1.244
						c1.493-0.498,5.723-2.489,5.723-2.489l6.469-2.986l2.737-0.248"/>
					<path id="Stroke-132" sketch:type="MSShapeGroup" fill="none" stroke="#5C5C5C" stroke-width="0.25" d="M189.783,51.763
						c0,0-1.742,3.732-1.494,4.977c0.25,1.243,0.498,2.985,1.494,4.228c0.995,1.246,3.235,2.241,3.235,2.241h3.731l0.996,2.488
						l1.493,4.23l0.497,1.991v3.483"/>
					<path id="Stroke-134" sketch:type="MSShapeGroup" fill="none" stroke="#5C5C5C" stroke-width="0.25" d="M16.355,180.154
						l0.746,12.938l2.489,24.882l0.995,9.207l5.226,45.783l0.995,12.44"/>
					<path id="Stroke-136" sketch:type="MSShapeGroup" fill="none" stroke="#5C5C5C" stroke-width="0.25" d="M17.351,193.341
						l96.293-5.474l39.313-1.741l5.723-0.498l19.905-7.216l22.145-3.482c0,0,1.494,4.977,1.742,7.465
						c0.25,2.486,0.996,5.473,0.996,5.473l0.498,1.99l0.249,3.982l0.25,4.976c0,0,6.966,2.239,8.21,2.239"/>
					<path id="Stroke-138" sketch:type="MSShapeGroup" fill="none" stroke="#5C5C5C" stroke-width="0.25" d="M202.969,192.347
						c0,0,0.498,1.99-1.243,3.482c-1.742,1.493-2.987,1.99-2.987,1.99s-6.966,0.997-7.713,1.245
						c-0.746,0.25-7.962,2.986-8.708,4.479c-0.747,1.493-3.982,9.953-3.982,9.953l-1.741,3.482l-0.498,2.986l0.249,3.732
						c0,0-0.249,1.99-1.991,2.488c-1.741,0.498-5.722-0.746-5.722-0.746l-4.978-0.996l-3.483,0.746"/>
					<path id="Stroke-140" sketch:type="MSShapeGroup" fill="none" stroke="#5C5C5C" stroke-width="0.25" d="M175.351,225.688
						l4.727,1.494h5.474c1.244,0,2.488-1.494,2.488-1.494s0.249-2.736,2.239-3.731c1.991-0.994,2.738-2.737,2.24-3.483
						c0,0-1.369-2.675-2.862-2.115c-1.492,0.56-4.665,1.493-4.665,1.493l-3.173,0.56l-3.172-1.307l-1.866-0.746"/>
					<path id="Stroke-142" sketch:type="MSShapeGroup" fill="none" stroke="#5C5C5C" stroke-width="0.25" d="M19.839,220.961
						l95.795-4.977"/>
					<path id="Stroke-144" sketch:type="MSShapeGroup" fill="none" stroke="#5C5C5C" stroke-width="0.25" d="M42.729,178.412
						l5.475,96.792"/>
					<path id="Stroke-146" sketch:type="MSShapeGroup" fill="none" stroke="#5C5C5C" stroke-width="0.25" d="M25.064,262.513
						l126.649-6.966c0,0,1.742-0.748,3.981-2.738c2.239-1.99,11.446-11.195,11.446-11.195"/>
					<path id="Stroke-148" sketch:type="MSShapeGroup" fill="none" stroke="#5C5C5C" stroke-width="0.25" d="M60.645,239.373
						l55.985-2.736"/>
					<path id="Stroke-150" sketch:type="MSShapeGroup" fill="none" stroke="#5C5C5C" stroke-width="0.25" d="M26.308,276.695
						l106.992-5.722c0,0,0.747,0.249,2.488-0.497c1.742-0.748,3.483-1.494,5.474-0.748c1.991,0.748,1.991,0,3.484,1.992
						c1.493,1.99,1.99,5.723,1.244,8.211s-0.747,10.2-0.249,11.445c0.498,1.244,0,2.238,1.991,4.229
						c1.99,1.99,4.727,4.479,4.727,4.479s0.498,3.482,1.991,4.729c1.493,1.242,3.98,3.232,5.971,2.238
						c1.991-0.996,4.23-2.738,4.23-2.738l3.732-0.497l8.459-1.741c0,0,3.733-0.996,5.474-0.996c1.742,0,14.681,0.249,14.681,0.249"
						/>
					<path id="Stroke-152" sketch:type="MSShapeGroup" fill="none" stroke="#5C5C5C" stroke-width="0.25" d="M166.891,268.236
						c-0.249,0.746-2.986,1.493-2.986,1.493l-0.25,1.741c0,0-1.741,0.746-2.488,1.494c-0.746,0.745-2.239,6.717-1.742,7.961
						s5.474,9.704,5.474,9.704s3.234,4.229,3.234,6.966c0,2.738,0.25,6.221,0.25,6.221"/>
					<path id="Stroke-154" sketch:type="MSShapeGroup" fill="none" stroke="#5C5C5C" stroke-width="0.25" d="M168.01,297.254
						c0,0,2.053,0.468,2.52,1.214c0.466,0.747,1.12,4.665,1.12,4.665"/>
					<path id="Stroke-156" sketch:type="MSShapeGroup" fill="none" stroke="#5C5C5C" stroke-width="0.25" d="M197.247,312.898
						l-0.125-22.145l4.355,0.125l2.986,1.119c0,0,0.747,0.621,1.493,0.498c0.747-0.124,1.368-2.736,1.368-2.736l-2.737-2.613v-1.493
						l1.494-2.985c0,0,0.87-1.992-0.25-2.737c-1.119-0.747-1.617-0.996-1.617-0.996l0.996-6.593c0,0-0.623-1.119-2.364-1.617
						c-1.742-0.498-4.852-1.244-5.474-2.488c-0.622-1.244-1.742-2.986-1.742-2.986l-2.737-2.115l-0.871-0.746l-0.248-2.861
						l-1.369-1.742l-0.871-1.617v-2.363l-0.373-0.746l-1.617-1.99"/>
					<path id="Stroke-158" sketch:type="MSShapeGroup" fill="none" stroke="#5C5C5C" stroke-width="0.25" d="M189.533,255.92
						l-2.985,0.125l-2.488-2.613"/>
					<path id="Stroke-160" sketch:type="MSShapeGroup" fill="none" stroke="#5C5C5C" stroke-width="0.25" d="M190.404,257.785
						c0,0-0.747,0.871-1.493,0.996c-0.746,0.123-2.115-0.125-2.115-0.125l-1.244-0.497l-3.732-3.483"/>
					<path id="Stroke-162" sketch:type="MSShapeGroup" fill="none" stroke="#5C5C5C" stroke-width="0.25" d="M186.299,332.058
						c0,0-0.249-3.11-0.125-11.321c0.125-8.211,0.747-6.843,1.244-7.34c0.498-0.498,2.737-0.248,2.737-0.248l23.016,0.497
						c0,0,4.478,1.616,5.722,2.488"/>
					<path id="Stroke-164" sketch:type="MSShapeGroup" fill="none" stroke="#5C5C5C" stroke-width="0.25" d="M216.655,332.805
						l14.805,7.713"/>
					<path id="Stroke-166" sketch:type="MSShapeGroup" fill="none" stroke="#5C5C5C" stroke-width="0.25" d="M223.498,311.654
						l18.039,11.446"/>
					<path id="Stroke-168" sketch:type="MSShapeGroup" fill="none" stroke="#5C5C5C" stroke-width="0.25" d="M243.776,307.922
						l7.091,4.604l31.725-1.492c0,0,3.11-1.121,4.105-0.747c0.995,0.373,5.598,1.12,5.598,1.12s1.991,0,3.732-0.623
						c1.742-0.621,7.341-3.73,7.341-3.73l22.643-9.332c0,0,7.838-5.474,8.957-6.469c1.12-0.994,6.718-5.971,6.718-5.971
						s7.558-4.603,9.456-4.729c1.866-0.125,1.866-0.373,1.866-0.373"/>
					<path id="Stroke-170" sketch:type="MSShapeGroup" fill="none" stroke="#5C5C5C" stroke-width="0.25" d="M267.289,311.654
						l-32.222,54.367"/>
					<path id="Stroke-172" sketch:type="MSShapeGroup" fill="none" stroke="#5C5C5C" stroke-width="0.25" d="M235.564,332.432
						l13.935,9.08"/>
					<path id="Stroke-174" sketch:type="MSShapeGroup" fill="none" stroke="#5C5C5C" stroke-width="0.25" d="M255.969,303.32
						l19.407,0.373c0,0,2.115-0.622,2.612-1.121"/>
					<path id="Stroke-176" sketch:type="MSShapeGroup" fill="none" stroke="#5C5C5C" stroke-width="0.25" d="M264.801,312.027
						l-0.124-8.584"/>
					<path id="Stroke-178" sketch:type="MSShapeGroup" fill="none" stroke="#5C5C5C" stroke-width="0.25" d="M314.067,287.146
						c0,0-4.105,0.124-4.728,0.498s-2.239,1.367-2.239,1.367l-0.623,0.499l-14.306-0.996l0.746-15.675"/>
					<path id="Stroke-180" sketch:type="MSShapeGroup" fill="none" stroke="#5C5C5C" stroke-width="0.25" d="M274.505,265.623
						l12.565,6.594c0,0,6.844,0.498,8.461,0.996c1.617,0.497,4.478,0.372,4.478,0.372s0.995,0.249,1.742,0
						c0.746-0.248,5.972-3.979,6.344-3.979c0.375,0,2.613,0.124,2.613,0.124l8.336,1.243"/>
					<path id="Stroke-182" sketch:type="MSShapeGroup" fill="none" stroke="#5C5C5C" stroke-width="0.25" d="M308.594,269.729
						v-5.476l5.35-1.615v-3.111l-0.373-0.498l-5.973-3.234c0,0-1.244,0.124-2.114,0.124c-0.871,0-2.488-1.243-2.488-1.243
						l-2.612-32.223l-4.479-63.449c0,0-0.747-2.488,2.363-6.345c3.11-3.855,5.474-6.095,5.474-6.095"/>
					<path id="Stroke-184" sketch:type="MSShapeGroup" fill="none" stroke="#5C5C5C" stroke-width="0.25" d="M321.034,237.631
						c-0.249,0.373-10.45,5.101-10.45,5.101s-0.746,1.12-0.497,3.36c0.248,2.238,0.994,9.453,0.994,9.453l2.115,1.742l0.374,1.742"
						/>
					<path id="Stroke-186" sketch:type="MSShapeGroup" fill="none" stroke="#5C5C5C" stroke-width="0.25" d="M299.138,141.587
						l-3.234,3.608l-4.104,4.604c0,0-1.369,4.354-1.493,5.225"/>
					<path id="Stroke-188" sketch:type="MSShapeGroup" fill="none" stroke="#5C5C5C" stroke-width="0.25" d="M287.194,144.574
						l49.143-49.017l26.872-27.124"/>
					<path id="Stroke-190" sketch:type="MSShapeGroup" fill="none" stroke="#5C5C5C" stroke-width="0.25" d="M318.795,104.515
						l18.537,18.661l13.188,13.436"/>
					<path id="Stroke-192" sketch:type="MSShapeGroup" fill="none" stroke="#5C5C5C" stroke-width="0.25" d="M325.264,97.672
						l18.661,19.283l15.925,15.178"/>
					<path id="Stroke-194" sketch:type="MSShapeGroup" fill="none" stroke="#5C5C5C" stroke-width="0.25" d="M323.896,148.928
						l6.469,7.465l43.419-43.17l1.867-0.746"/>
					<path id="Stroke-196" sketch:type="MSShapeGroup" fill="none" stroke="#5C5C5C" stroke-width="0.25" d="M365.697,111.854
						l-39.438,39.438"/>
					<path id="Stroke-198" sketch:type="MSShapeGroup" fill="none" stroke="#5C5C5C" stroke-width="0.25" d="M330.364,156.393
						c0,0,0.125,1.617-0.372,1.493c-0.498-0.125-3.732-0.249-3.732-0.249s-3.608,1.616-4.728,1.991
						c-1.119,0.373-3.608,0.124-3.608,0.124l-5.972-0.499"/>
					<path id="Stroke-200" sketch:type="MSShapeGroup" fill="none" stroke="#5C5C5C" stroke-width="0.25" d="M312.947,155.77
						c0,0-2.364,2.116-2.612,3.732c-0.248,1.618,0.124,5.475,0.124,5.475l5.6,72.654"/>
					<path id="Stroke-202" sketch:type="MSShapeGroup" fill="none" stroke="#5C5C5C" stroke-width="0.25" d="M311.704,148.182
						l-7.091,6.842c0,0-1.369,1.742-1.742,2.613c-0.374,0.871-0.125,4.105-0.125,4.105l5.599,76.386"/>
					<path id="Stroke-204" sketch:type="MSShapeGroup" fill="none" stroke="#5C5C5C" stroke-width="0.25" d="M278.735,199.687
						l97.289-7.09"/>
					<path id="Stroke-206" sketch:type="MSShapeGroup" fill="none" stroke="#5C5C5C" stroke-width="0.25" d="M357.112,170.326
						l0.499,7.589c0,0-0.373,1.616,1.741,1.493c2.115-0.125,15.054-1.369,15.054-1.369"/>
					<path id="Stroke-208" sketch:type="MSShapeGroup" fill="none" stroke="#5C5C5C" stroke-width="0.25" d="M360.97,179.409
						l3.732,51.255"/>
					<path id="Stroke-210" sketch:type="MSShapeGroup" fill="none" stroke="#5C5C5C" stroke-width="0.25" d="M344.548,194.835
						l2.239,27.122c0,0-0.622,2.114,2.613,1.866c3.234-0.249,13.809-1.493,13.809-1.493l9.58-0.747l5.474-0.497"/>
					<path id="Stroke-212" sketch:type="MSShapeGroup" fill="none" stroke="#5C5C5C" stroke-width="0.25" d="M275.874,157.511
						l6.593,88.581"/>
					<path id="Stroke-214" sketch:type="MSShapeGroup" fill="none" stroke="#5C5C5C" stroke-width="0.25" d="M275.376,224.32
						l48.395-3.982"/>
					<path id="Stroke-216" sketch:type="MSShapeGroup" fill="none" stroke="#5C5C5C" stroke-width="0.25" d="M297.77,186.5
						l-59.841,3.856l-24.384,1.742"/>
					<path id="Stroke-218" sketch:type="MSShapeGroup" fill="none" stroke="#5C5C5C" stroke-width="0.25" d="M262.438,160.498
						l8.336,110.973"/>
					<path id="Stroke-220" sketch:type="MSShapeGroup" fill="none" stroke="#5C5C5C" stroke-width="0.25" d="M240.043,220.463
						l27.123-1.369"/>
					<path id="Stroke-222" sketch:type="MSShapeGroup" fill="none" stroke="#5C5C5C" stroke-width="0.25" d="M241.537,236.016
						l26.499-1.991"/>
					<path id="Stroke-224" sketch:type="MSShapeGroup" fill="none" stroke="#5C5C5C" stroke-width="0.25" d="M261.193,234.396
						l2.239,26.624c0,0,0.249,0.374,1.368,0.498s4.977-0.622,4.977-0.622"/>
					<path id="Stroke-226" sketch:type="MSShapeGroup" fill="none" stroke="#5C5C5C" stroke-width="0.25" d="M235.067,237.259
						c0,0,1.741,26.997,1.741,27.495c0,0.496-0.123,1.368-0.87,3.357c-0.747,1.99-1.866,4.604-3.11,6.097s-0.996,1.991-3.111,1.493
						c-2.113-0.498-4.229-0.871-4.229-0.871s-2.364-0.373-2.364,1.369c0,1.741,0.746,2.612,0.87,2.985c0.125,0.372,0,5.972,0,5.972
						l-0.373,2.862"/>
					<path id="Stroke-228" sketch:type="MSShapeGroup" fill="none" stroke="#5C5C5C" stroke-width="0.25" d="M224.244,284.534
						c0,0,11.57,4.726,13.188,4.977c1.617,0.248,6.469,0.621,8.086,0.248s5.972-3.235,7.963-4.728
						c1.99-1.492,11.072-9.33,11.072-9.33s1.368-2.612,1.493-3.855c0.124-1.245-0.747-10.576-0.747-10.576"/>
					<path id="Stroke-230" sketch:type="MSShapeGroup" fill="none" stroke="#5C5C5C" stroke-width="0.25" d="M236.436,257.537
						l32.969-2.488"/>
					<path id="Stroke-232" sketch:type="MSShapeGroup" fill="none" stroke="#5C5C5C" stroke-width="0.25" d="M212.052,243.727
						c0,0,0.747,1.369,1.99,1.121c1.245-0.249,4.729-1.99,4.729-1.99s2.861-1.119,3.607,0.249c0.746,1.368,0.497,2.487,0.497,3.481
						c0,0.998-0.248,2.365,1.119,3.983c1.369,1.616,5.475,4.229,5.475,4.229l5.599,5.599c0,0,1.244,1.867,1.244,4.355
						c0,2.487-0.871,4.229-0.871,4.229"/>
					<path id="Stroke-234" sketch:type="MSShapeGroup" fill="none" stroke="#5C5C5C" stroke-width="0.25" d="M327.13,258.035
						l15.428,11.693"/>
					<path id="Stroke-236" sketch:type="MSShapeGroup" fill="none" stroke="#5C5C5C" stroke-width="0.25" d="M341.687,272.342
						l49.639,35.581"/>
					<path id="Stroke-238" sketch:type="MSShapeGroup" fill="none" stroke="#5C5C5C" stroke-width="0.25" d="M364.329,309.664
						l-20.776-3.857l-6.967,8.586l-44.041,14.555"/>
					<path id="Stroke-240" sketch:type="MSShapeGroup" fill="none" stroke="#5C5C5C" stroke-width="0.25" d="M325.264,298.094
						l5.973,16.174c0,0,6.594,21.521,7.34,23.887c0.746,2.363,3.732,14.928,3.981,17.168c0.248,2.239,2.612,7.092,0,8.212
						s-5.226,1.616-5.226,1.616l-0.498,0.374l-0.871,6.967"/>
					<path id="Stroke-242" sketch:type="MSShapeGroup" fill="none" stroke="#5C5C5C" stroke-width="0.25" d="M345.543,361.17
						c0,0-6.47,12.316-6.843,17.543c-0.373,5.225-0.373,7.215-0.373,7.215l1.866,22.146l1.119,8.584c0,0-0.248,9.706,0,12.44
						c0.249,2.738,4.354,16.92,4.354,16.92"/>
					<path id="Stroke-244" sketch:type="MSShapeGroup" fill="none" stroke="#5C5C5C" stroke-width="0.25" d="M339.695,373.737
						l15.677,4.852h2.238c0,0,0.374,0.621,0.622,2.239c0.249,1.617,0.747,5.225,0.747,5.225"/>
					<path id="Stroke-246" sketch:type="MSShapeGroup" fill="none" stroke="#5C5C5C" stroke-width="0.25" d="M364.08,385.307
						l-6.843,1.244l-2.861,0.25c0,0-1.368,0.496-1.368,1.367s1.244,4.728,1.244,4.728"/>
					<path id="Stroke-248" sketch:type="MSShapeGroup" fill="none" stroke="#5C5C5C" stroke-width="0.25" d="M338.825,394.264h5.723
						c0,0,6.096,0.125,8.211-0.498c2.114-0.621,6.594-2.859,6.594-2.859l4.728-5.6l5.599-4.729c0,0,0.995-0.249,2.612-0.249h2.115
						c0,0,4.229-0.745,5.101-1.741c0.871-0.994,1.99-1.367,1.99-1.367"/>
					<path id="Stroke-250" sketch:type="MSShapeGroup" fill="none" stroke="#5C5C5C" stroke-width="0.25" d="M359.477,390.656
						c0,0-0.124,3.358,0.249,4.604c0.374,1.244,3.856,6.22,3.856,6.22"/>
					<path id="Stroke-252" sketch:type="MSShapeGroup" fill="none" stroke="#5C5C5C" stroke-width="0.25" d="M338.452,338.652
						l-39.189,13.686c0,0-4.728-1.369-8.583-2.24c-3.858-0.869-7.963-1.367-7.963-1.367s-1.369-0.623-4.854,2.114
						c-3.482,2.737-6.219,4.354-6.219,4.354s-2.49,0.746-3.111,0.124s-2.86-3.981-2.86-3.981s-1.991,2.738-1.866,4.604
						c0.124,1.867,0.994,4.604,1.617,5.848c0.622,1.244,2.984,4.105,3.359,4.105c0.372,0,13.063,4.479,13.063,4.479l44.912,15.676"
						/>
					<path id="Stroke-254" sketch:type="MSShapeGroup" fill="none" stroke="#5C5C5C" stroke-width="0.25" d="M307.475,349.352
						c0,0,0.994,1.99,0.372,3.857c-0.621,1.865-0.372,2.238-3.358,3.732c-2.986,1.492-8.584,4.23-8.584,4.23
						s-1.99,2.238-1.867,3.855c0.125,1.617,0.498,2.363,1.617,3.359c1.12,0.994,13.063,4.977,13.063,4.977l20.154,7.09"/>
					<path id="Stroke-256" sketch:type="MSShapeGroup" fill="none" stroke="#5C5C5C" stroke-width="0.25" d="M282.841,370.627
						c0,0,0.995,0.746,2.239,3.109c1.244,2.364,3.482,3.359,2.114,4.977c-1.368,1.618-2.239,2.861-2.239,2.861l-1.742,5.475
						l-0.496,0.994"/>
					<path id="Stroke-258" sketch:type="MSShapeGroup" fill="none" stroke="#5C5C5C" stroke-width="0.25" d="M272.639,385.307
						l-3.607,10.699c0,0-0.622,3.358,0,4.728c0.623,1.368,1.99,4.229,1.99,4.229s0.622,4.23,0.871,5.848
						c0.248,1.617-0.248,1.741,0.995,3.732c1.244,1.99,3.11,4.977,3.11,4.977l3.11,3.482c0,0,3.234,0.125,4.728,0.25
						c1.492,0.123,6.345,2.24,6.345,2.24l8.46,2.611l4.105,0.123c0,0,8.957-1.119,11.321,2.613s4.105,6.844,4.105,6.844l3.608,7.961
						l1.119,0.996"/>
					<path id="Stroke-260" sketch:type="MSShapeGroup" fill="none" stroke="#5C5C5C" stroke-width="0.25" d="M279.73,423.127
						c0,0-2.612,1.617-3.607,3.857c-0.996,2.238-2.488,4.479-2.488,4.479s-1.369,2.363-3.235,2.736s-5.101,0.623-6.221-0.373
						s-7.589-6.842-7.589-6.842s-1.99-1.992-4.354-1.742c-2.365,0.25-3.607,1.244-4.105,2.736s-1.742,5.6-3.234,6.471
						c-1.493,0.869-3.733,1.617-5.723,0.746c-1.992-0.871-7.217-3.732-7.217-3.732l-9.082-6.844l-9.331-4.727l-11.569-5.598
						c0,0-4.23-1.992-6.47,1.242c-2.24,3.236-0.747,6.348-2.862,10.203c-2.115,3.855-4.852,8.459-4.852,8.459l-3.732,3.982
						l-6.221,3.482l-2.488,1.369l-0.996,3.234"/>
					<path id="Stroke-262" sketch:type="MSShapeGroup" fill="none" stroke="#5C5C5C" stroke-width="0.25" d="M245.643,371.746
						c0,0,0.622,3.855,1.369,4.479c0.746,0.622,3.482,5.35,3.855,5.473c0.373,0.126,1.494,3.234,1.617,4.479
						c0.125,1.245,0.996,1.866,0,2.115c-0.995,0.249-3.731,0.622-3.731,0.622s-0.249,1.244-0.622,1.742s-1.369,2.363-1.494,2.736
						c-0.123,0.373-1.616,1.618-2.736,1.867c-1.119,0.248-4.105,0.621-4.105,0.621l-6.594,0.373c0,0-2.736,0-4.23,1.742
						c-1.492,1.742-3.607,2.737-3.607,2.737l-2.861,1.12l-3.981,1.244c0,0-1.12-0.498-1.742,2.113
						c-0.622,2.613-0.746,4.356-0.373,5.351c0.373,0.995,0.622,2.737,0.622,2.737l-4.354,0.124c0,0-3.733-0.995-5.35-1.741
						s-6.469-3.359-6.469-3.359l-1.368-0.375c0,0-2.115-0.621-4.853,0.998c-2.737,1.616-4.977,2.984-8.584,2.736
						c-3.608-0.25-7.837-0.373-9.579-1.867c-1.742-1.492-4.106-4.478-4.106-4.478l-3.11-6.346l-2.986-5.226"/>
					<path id="Stroke-264" sketch:type="MSShapeGroup" fill="none" stroke="#5C5C5C" stroke-width="0.25" d="M215.784,364.778
						l5.598,17.543l-5.896,2.372l-25.952,10.441c0,0-3.359-8.336-4.479-9.331c-1.12-0.994-4.479-4.106-4.479-4.106l-1.991-1.617"/>
					<path id="Stroke-266" sketch:type="MSShapeGroup" fill="none" stroke="#5C5C5C" stroke-width="0.25" d="M215.659,384.685
						l1.991,4.853c0,0,4.728-1.122,6.594,0.125c1.865,1.242,6.842,3.73,6.842,3.73l1.991,2.861"/>
					<path id="Stroke-268" sketch:type="MSShapeGroup" fill="none" stroke="#5C5C5C" stroke-width="0.25" d="M197.371,349.974
						c-0.373-0.125-11.694-5.599-11.694-5.599s-10.078,0.125-10.948,0.125s-20.279-0.125-20.279-0.125l-1.99,0.746l-2.115,0.621
						L144,345.867l-16.795-0.373"/>
					<path id="Stroke-270" sketch:type="MSShapeGroup" fill="none" stroke="#5C5C5C" stroke-width="0.25" d="M166.269,328.201
						l0.747,48.395"/>
					<path id="Stroke-272" sketch:type="MSShapeGroup" fill="none" stroke="#5C5C5C" stroke-width="0.25" d="M181.322,370.252
						l-19.408-0.124l-4.106,0.248c0,0-0.995,0.249-1.368-1.741c-0.375-1.99,0.871-3.11-3.733-2.986
						c-4.603,0.125-17.542,0.125-17.542,0.125l-6.096-6.843l-1.493-2.115"/>
					<path id="Stroke-274" sketch:type="MSShapeGroup" fill="none" stroke="#5C5C5C" stroke-width="0.25" d="M93.738,317.627
						c0,0,3.981,0.498,5.225-0.373c1.244-0.871,3.608-3.111,3.608-3.111s2.986-1.74,4.728-0.871
						c1.742,0.871,1.368,1.494,1.742,2.861c0.374,1.369,0.623,1.867,1.617,1.992c0.995,0.123,6.096,0.123,6.096,0.123l1.991,0.125
						l1.244,0.124l8.087,0.126"/>
					<path id="Stroke-276" sketch:type="MSShapeGroup" fill="none" stroke="#5C5C5C" stroke-width="0.25" d="M119.118,340.766
						l8.211-2.735"/>
					<path id="Stroke-278" sketch:type="MSShapeGroup" fill="none" stroke="#5C5C5C" stroke-width="0.25" d="M90.379,329.072
						l18.413,20.402c0,0,1.618,0.25,2.239,0.499c0.623,0.249,1.369,1.741,1.369,1.741l0.125,1.865l16.546,11.943"/>
					<path id="Stroke-280" sketch:type="MSShapeGroup" fill="none" stroke="#5C5C5C" stroke-width="0.25" d="M90.126,330.078
						l17.808,19.904l0.385,1.616l0.258,1.365l1.501,1.11l2.115,0.109l16.384,12.076"/>
					<path id="Stroke-282" sketch:type="MSShapeGroup" fill="none" stroke="#5C5C5C" stroke-width="0.25" d="M88.637,364.279
						c0,0,19.408,0.002,21.523,0.125c2.115,0.125,7.34,0.871,9.082,2.24c1.742,1.367,4.354,3.731,4.728,3.855
						c0.373,0.125,3.732,1.121,3.732,1.121l5.475,0.248l3.234,0.124l3.732,0.872c0,0,6.221,0,6.843,0.123
						c0.622,0.125,4.728,0.373,6.096,1.991c1.369,1.616,2.861,2.363,2.861,2.363"/>
					<path id="Stroke-284" sketch:type="MSShapeGroup" fill="none" stroke="#5C5C5C" stroke-width="0.25" d="M45.094,348.854
						c0,0,1.368,1.867,2.114,2.984c0.747,1.121,3.111,3.734,3.111,3.734l3.233,1.492c0,0,8.46,2.986,9.829,3.857
						c1.368,0.871,4.852,3.605,5.101,4.104c0.249,0.499,2.985,4.729,2.985,4.729l3.733,3.731c0,0,1.493,0.623,2.861,3.109
						c1.369,2.49,0.87,2.117,1.617,3.982s1.12,3.607,1.12,3.607l2.364,2.115l3.982,2.488"/>
					<path id="Stroke-286" sketch:type="MSShapeGroup" fill="none" stroke="#5C5C5C" stroke-width="0.25" d="M50.568,298.467
						c0,0,0.871,5.35,1.617,7.34c0.747,1.992,0.871,3.235,2.985,4.23c2.115,0.996,1.991,0.249,2.861,0.249
						c0.872,0,3.609-1.12,3.609-1.12l2.239-0.371l0.747-0.499"/>
					<path id="Stroke-288" sketch:type="MSShapeGroup" fill="none" stroke="#5C5C5C" stroke-width="0.25" d="M89.757,414.791
						c0.373,0.124,5.724,13.686,5.724,13.686"/>
					<path id="Stroke-290" sketch:type="MSShapeGroup" fill="none" stroke="#5C5C5C" stroke-width="0.25" d="M71.22,445.893
						l-0.125-11.693c0,0,0.249-4.479,4.479-4.729c4.23-0.248,17.044,0.125,17.044,0.125l11.321-4.229l-5.599-14.183"/>
					<path id="Stroke-296" sketch:type="MSShapeGroup" fill="none" stroke="#5C5C5C" stroke-width="0.25" d="M64.626,299.586
						l53.372-2.613c0,0,4.479,2.115,4.852,2.365c0.373,0.248,4.853,3.234,4.853,3.234"/>
					<path id="Stroke-298" sketch:type="MSShapeGroup" fill="none" stroke="#5C5C5C" stroke-width="0.25" d="M91.001,291.5
						l0.249,6.469"/>
					<path id="Stroke-300" sketch:type="MSShapeGroup" fill="none" stroke="#5C5C5C" stroke-width="0.25" d="M145.991,186.498
						l1.866,41.428l-0.125,0.373l-2.612,0.249v6.843c0,0-0.871,0.248-5.474,0.621c-4.603,0.375-6.967,0.126-6.967,0.126
						s1.618,34.585,1.618,34.958"/>
					<path id="Stroke-302" sketch:type="MSShapeGroup" fill="none" stroke="#5C5C5C" stroke-width="0.25" d="M147.732,228.424
						c0,0,2.239-0.748,2.986,0c0.747,0.745,3.857,2.985,3.857,2.985l1.12,4.105c0,0,0.373,2.239,0.87,2.861
						c0.499,0.622,1.244,1.741,1.244,2.115c0,0.373,0.872,1.866,0.872,1.866l0.249,4.479l0.871,2.115"/>
					<path id="Stroke-304" sketch:type="MSShapeGroup" fill="none" stroke="#5C5C5C" stroke-width="0.25" d="M153.455,254.674
						c0,0-0.373,1.99-0.747,3.732c-0.373,1.742-0.249,2.611-1.12,3.98c-0.871,1.369-3.111,4.977-3.111,4.977v2.365l0.25,0.621"/>
					<path id="Stroke-306" sketch:type="MSShapeGroup" fill="none" stroke="#5C5C5C" stroke-width="0.25" d="M183.935,159.252
						l92.686-14.307"/>
					<path id="Stroke-308" sketch:type="MSShapeGroup" fill="none" stroke="#5C5C5C" stroke-width="0.25" d="M207.324,155.272
						l-6.468-38.692v-3.732l0.496-2.115c0,0,0.747,0.124,0.624-2.24c-0.125-2.364-1.245-8.086-1.245-8.086v-1.991l2.986-3.483
						l143.072-22.767"/>
					<path id="Stroke-310" sketch:type="MSShapeGroup" fill="none" stroke="#5C5C5C" stroke-width="0.25" d="M200.979,100.779
						c0,0,2.364-1.742,3.732-1.866c1.369-0.125,115.951-18.661,115.951-18.661l12.315-1.991l11.446-1.742l0.124,0.995"/>
					<path id="Stroke-312" sketch:type="MSShapeGroup" fill="none" stroke="#5C5C5C" stroke-width="0.25" d="M206.081,109.115
						l-2.364-14.183"/>
					<path id="Stroke-314" sketch:type="MSShapeGroup" fill="none" stroke="#5C5C5C" stroke-width="0.25" d="M311.828,21.158
						l11.57,73.278"/>
					<path id="Stroke-316" sketch:type="MSShapeGroup" fill="none" stroke="#5C5C5C" stroke-width="0.25" d="M231.086,20.536
						l5.6,34.213"/>
					<path id="Stroke-318" sketch:type="MSShapeGroup" fill="none" stroke="#5C5C5C" stroke-width="0.25" d="M211.554,23.272
						l5.722,34.836l98.035-15.8"/>
					<path id="Stroke-320" sketch:type="MSShapeGroup" fill="none" stroke="#5C5C5C" stroke-width="0.25" d="M214.913,44.05
						l58.722-9.829"/>
					<path id="Stroke-322" sketch:type="MSShapeGroup" fill="none" stroke="#5C5C5C" stroke-width="0.25" d="M272.516,27.377
						l16.919,105.251"/>
					<path id="Stroke-324" sketch:type="MSShapeGroup" fill="none" stroke="#5C5C5C" stroke-width="0.25" d="M269.28,38.326
						l-1.866-13.686l53.993-8.459"/>
					<path id="Stroke-326" sketch:type="MSShapeGroup" fill="none" stroke="#5C5C5C" stroke-width="0.25" d="M293.54,96.177
						l-13.063-81.24c0,0,17.293-2.736,20.652-2.986c3.358-0.249,6.469,0.124,6.469,0.124l7.59,1.246l4.976,2.612
						c0,0,4.106,2.364,6.097,3.731"/>
					<path id="Stroke-328" sketch:type="MSShapeGroup" fill="none" stroke="#5C5C5C" stroke-width="0.25" d="M282.468,58.481
						l5.972,37.697"/>
					<path id="Stroke-330" sketch:type="MSShapeGroup" fill="none" stroke="#5C5C5C" stroke-width="0.25" d="M300.009,12.574
						l13.811,83.852l1.617,9.953"/>
					<path id="Stroke-332" sketch:type="MSShapeGroup" fill="none" stroke="#5C5C5C" stroke-width="0.25" d="M295.281,12.947
						l1.742,10.574"/>
					<path id="Stroke-334" sketch:type="MSShapeGroup" fill="none" stroke="#5C5C5C" stroke-width="0.25" d="M238.178,65.573
						l13.686,82.856"/>
					<path id="Stroke-336" sketch:type="MSShapeGroup" fill="none" stroke="#5C5C5C" stroke-width="0.25" d="M259.451,40.441
						l9.207,57.975"/>
					<path id="Stroke-338" sketch:type="MSShapeGroup" fill="none" stroke="#5C5C5C" stroke-width="0.25" d="M261.069,81.993
						l-0.374-2.985l4.978-0.871"/>
					<path id="Stroke-340" sketch:type="MSShapeGroup" fill="none" stroke="#5C5C5C" stroke-width="0.25" d="M246.637,84.606
						l9.953,62.827"/>
					<path id="Stroke-342" sketch:type="MSShapeGroup" fill="none" stroke="#5C5C5C" stroke-width="0.25" d="M202.846,127.777
						l108.36-16.92"/>
					<path id="Stroke-344" sketch:type="MSShapeGroup" fill="none" stroke="#5C5C5C" stroke-width="0.25" d="M301.378,115.584
						l-0.622-7.091"/>
					<path id="Stroke-346" sketch:type="MSShapeGroup" fill="none" stroke="#5C5C5C" stroke-width="0.25" d="M179.83,139.097
						l97.661-15.924"/>
					<path id="Stroke-348" sketch:type="MSShapeGroup" fill="none" stroke="#5C5C5C" stroke-width="0.25" d="M281.721,118.819
						l-28.863,4.727"/>
					<path id="Stroke-350" sketch:type="MSShapeGroup" fill="none" stroke="#5C5C5C" stroke-width="0.25" d="M262.563,121.93
						l1.99,13.061l1.244,8.585l2.115,10.575"/>
					<path id="Stroke-352" sketch:type="MSShapeGroup" fill="none" stroke="#5C5C5C" stroke-width="0.25" d="M345.294,95.306
						l-9.331-8.584"/>
					<path id="Stroke-354" sketch:type="MSShapeGroup" fill="none" stroke="#5C5C5C" stroke-width="0.25" d="M335.591,81.372
						l5.101-1.12l-8.461-54.367"/>
					<path id="Stroke-356" sketch:type="MSShapeGroup" fill="none" stroke="#5C5C5C" stroke-width="0.25" d="M332.48,60.596
						l22.643-3.856"/>
					<path id="Stroke-358" sketch:type="MSShapeGroup" fill="none" stroke="#5C5C5C" stroke-width="0.25" d="M233.201,33.724
						l15.303-1.991l2.985,20.527"/>
					<path id="Stroke-360" sketch:type="MSShapeGroup" fill="none" stroke="#5C5C5C" stroke-width="0.25" d="M300.507,75.898
						l2.737,17.667"/>
					<path id="Stroke-362" sketch:type="MSShapeGroup" fill="none" stroke="#5C5C5C" stroke-width="0.25" d="M305.483,75.152
						l2.612,17.043"/>
					<path id="Stroke-364" sketch:type="MSShapeGroup" fill="none" stroke="#5C5C5C" stroke-width="0.25" d="M336.337,30.239
						l5.848,39.064"/>
					<path id="Stroke-366" sketch:type="MSShapeGroup" fill="none" stroke="#5C5C5C" stroke-width="0.25" d="M334.72,63.955
						l17.169-2.861"/>
					<path id="Stroke-368" sketch:type="MSShapeGroup" fill="none" stroke="#5C5C5C" stroke-width="0.25" d="M342.682,73.036
						l0.498,3.36"/>
					<path id="Stroke-370" sketch:type="MSShapeGroup" fill="none" stroke="#5C5C5C" stroke-width="0.25" d="M361.219,183.887
						l14.556-0.747"/>
					<path id="Stroke-372" sketch:type="MSShapeGroup" fill="none" stroke="#5C5C5C" stroke-width="0.25" d="M350.146,233.525
						l3.919,8.398c0,0,0.933,0.373,5.226,3.359c4.291,2.984,19.78,13.996,19.78,13.996l25.38,18.848"/>
					<path id="Stroke-374" sketch:type="MSShapeGroup" fill="none" stroke="#5C5C5C" stroke-width="0.25" d="M380.751,246.029
						l30.045,22.58l-7.278,10.823l-0.56,10.825c0,0-0.373,0.932-0.747,2.053c-0.373,1.119,0,2.612,0,2.612s2.24,5.784,1.307,7.092
						c-0.933,1.306-1.68,3.731-4.665,3.358S393.814,305,393.814,305l-32.658,45.533"/>
					<path id="Stroke-376" sketch:type="MSShapeGroup" fill="none" stroke="#5C5C5C" stroke-width="0.25" d="M359.85,324.407
						l28.739,20.527c0,0,0.933-0.747,0.56,1.12s-5.972,8.771-5.972,8.771l13.063,10.076l0.56,17.728c0,0,0.373,0.187-1.12,1.121
						c-1.492,0.933-5.411,0.56-5.972,0.373c-0.56-0.187-4.292-3.359-4.292-3.359l-5.039-5.226c0,0-2.238-4.105-3.545-7.838
						c-1.307-3.73-7.091-11.757-7.091-11.757l-16.796-11.569"/>
					<path id="Stroke-378" sketch:type="MSShapeGroup" fill="none" stroke="#5C5C5C" stroke-width="0.25" d="M355.185,335.418
						l27.806,19.408"/>
					<path id="Stroke-380" sketch:type="MSShapeGroup" fill="none" stroke="#5C5C5C" stroke-width="0.25" d="M198.74,197.82
						l-0.125,3.235c0,0,1.494,2.427,2.8,4.479s2.425,4.104,2.425,4.104h4.292l-0.373,1.308c0,0-3.546,1.12-4.292,0.934
						c-0.746-0.187-2.426-2.241-2.426-2.241l-1.679,0.374c0,0,1.12,4.479,2.239,5.786c1.12,1.306,1.866,3.359,1.866,3.359
						l-1.307,2.052l-0.932,1.307l0.932,3.359l-2.239,2.799l-0.188,1.865c0,0,5.413,1.867,6.532,3.921
						c1.12,2.052,0.933,1.864-0.187,1.864s-3.732-1.492-3.732-1.492l-1.494-1.12l-1.866,2.985c0,0-0.373,2.801-1.866,5.04
						c-1.493,2.239-2.612,2.8-2.612,2.8l-2.239,1.119l-1.307,1.679"/>
					<path id="Stroke-382" sketch:type="MSShapeGroup" fill="none" stroke="#5C5C5C" stroke-width="0.25" d="M199.922,211.692
						c0,0,3.732,1.68,4.292,2.425c0.561,0.748-1.307,2.053-1.307,2.053l-3.732,2.427l2.053,3.919l-2.613,2.239l-0.747,2.985
						l-3.172,3.547c0,0,0.746,1.865,1.12,2.425c0.373,0.561,3.918-3.173,3.918-3.173"/>
					<path id="Stroke-384" sketch:type="MSShapeGroup" fill="none" stroke="#5C5C5C" stroke-width="0.25" d="M237.059,178.66
						l33.403-2.425"/>
					<path id="Stroke-386" sketch:type="MSShapeGroup" fill="none" stroke="#5C5C5C" stroke-width="0.25" d="M208.132,186.873
						l4.292-5.413c0,0,1.306,0.748,1.866-0.933c0.56-1.68-0.187-3.918-0.187-3.918l0.747-1.866l5.039-0.374
						c0,0,4.665-5.038,6.345-5.226c1.68-0.186,2.053-0.372,3.173,0.188s1.679-0.188,1.679-0.188l0.746-1.866l1.307-0.373
						l29.485-2.053"/>
					<path id="Stroke-388" sketch:type="MSShapeGroup" fill="none" stroke="#5C5C5C" stroke-width="0.25" d="M240.791,293.242
						c0,0-0.374,3.359-1.307,4.293c-0.934,0.932-5.973,3.172-5.973,3.172l-2.426,0.373l-6.906,0.051l-27.182,0.197"/>
					<path id="Stroke-390" sketch:type="MSShapeGroup" fill="none" stroke="#5C5C5C" stroke-width="0.25" d="M224.367,307.053
						l-0.188-5.922"/>
					<path id="Stroke-392" sketch:type="MSShapeGroup" fill="none" stroke="#5C5C5C" stroke-width="0.25" d="M302.56,395.881
						l8.397-22.02"/>
					<path id="Stroke-394" sketch:type="MSShapeGroup" fill="none" stroke="#5C5C5C" stroke-width="0.25" d="M322.153,399.612
						l-18.101-6.903"/>
					<path id="Stroke-396" sketch:type="MSShapeGroup" fill="none" stroke="#5C5C5C" stroke-width="0.25" d="M110.347,132.008
						l-1.494-28.925"/>
					<path id="Stroke-398" sketch:type="MSShapeGroup" fill="none" stroke="#5C5C5C" stroke-width="0.25" d="M346.228,68.931
						l-1.12-6.904"/>
				</g>
				<g id="Matter-Logo_1_" transform="translate(285.000000, 148.000000)" sketch:type="MSShapeGroup">
					<g id="Page-1-_x2B_-Triangle-1">
						<g>
							<g id="Page-1_1_">
								<g id="Matter-Logo">
									<rect id="BG" fill="#FF523C" width="25" height="25"/>
									<path id="M" display="none" fill="#FFFFFF" d="M12.574,16.916l5.679-9.255v11.905h1.229V5.395H18.45l-5.901,9.478
										L6.673,5.395H5.566v14.17h1.229V7.661l5.704,9.255H12.574L12.574,16.916z"/>
								</g>
							</g>
							<path id="Triangle-1" fill="#FF523C" d="M9.498,25h4.989L12,28.877L9.498,25z"/>
						</g>
					</g>
				</g>
			</g>
		</g>
	</g>
	<text transform="matrix(1 0 0 1 293.3525 164.6665)" fill="#FFFFFF" font-family="'MyriadPro-Regular'" font-size="12">C</text>
</g>
</svg>
