<?xml version="1.0" encoding="utf-8"?>
<!-- Generator: Adobe Illustrator 18.1.0, SVG Export Plug-In . SVG Version: 6.00 Build 0)  -->
<svg version="1.1" id="Layer_1" xmlns="http://www.w3.org/2000/svg" xmlns:xlink="http://www.w3.org/1999/xlink" x="0px" y="0px"
	 viewBox="0 0 18.6 19.2" enable-background="new 0 0 18.6 19.2" xml:space="preserve">
<g>
	<path fill="#FFFFFF" d="M0.6,1.9C0.4,1.4,0,0.8,0,0.6C0,0.3,0.2,0,0.5,0c0.4,0,0.6,0.3,0.8,0.5l8.1,8.3C9.8,9.2,10,9.3,10,9.6
		c0,0.3-0.2,0.4-0.6,0.8l-8.1,8.3c-0.2,0.2-0.5,0.5-0.8,0.5C0.2,19.2,0,19,0,18.6c0-0.3,0.4-0.9,0.6-1.3l3.9-7.7L0.6,1.9z M9.1,1.9
		c-0.2-0.4-0.6-1-0.6-1.3C8.6,0.3,8.8,0,9.1,0c0.4,0,0.6,0.3,0.8,0.5L18,8.8c0.4,0.4,0.6,0.5,0.6,0.8c0,0.3-0.2,0.4-0.6,0.8
		l-8.1,8.3c-0.2,0.2-0.5,0.5-0.8,0.5c-0.3,0-0.5-0.3-0.5-0.6c0-0.3,0.4-0.9,0.6-1.3L13,9.6L9.1,1.9z"/>
</g>
</svg>
